
		<svg xmlns="http://www.w3.org/2000/svg" xmlns:xlink="http://www.w3.org/1999/xlink" version="1.1" width="3102.0408163265306" height="1316.3265306122448">
			
			<g transform="scale(5.1020408163265305) translate(10, 10)">
				<defs id="SvgjsDefs1011"></defs><g id="SvgjsG1012" featureKey="root" fill="#ffffff"></g><g id="SvgjsG1013" featureKey="symbol1" fill="#da223e" transform="matrix(1.2092501677053897,0,0,1.2092501677053897,232.4680423263098,9.095495691266034)"><g xmlns="http://www.w3.org/2000/svg" display="none"><g display="inline"><path fill="#da223e" d="M82.736,30.044c-0.29-2.242-0.495-3.827-0.557-4.447c-0.161-1.627-1.161-2.975-2.221-4.403    c-1.381-1.861-2.919-3.939-3.292-7.22v-1.098c0-0.83-0.569-1.552-1.374-1.748L31.315,0.485c-0.534-0.13-1.101-0.007-1.534,0.334    c-0.433,0.34-0.686,0.861-0.686,1.413c0,4.396-1.799,6.84-3.388,8.997c-0.942,1.279-1.83,2.486-2.169,3.913    c-0.06,0.249-2.265,14.561-3.663,28.822C10.133,46.799,2.986,55.789,2.986,66.434c0,12.91,10.503,23.413,23.413,23.413    c7.69,0,14.505-3.743,18.775-9.487c7.237,1.512,13.978,2.532,16.98,2.532c0.313,0,0.572-0.015,0.8-0.038    c0.029,0.002,0.051,0.008,0.08,0.008c1.692,0,4.827-1.307,9.339-3.898c12.259-1.313,13.081-2.418,13.525-3.018l0.223-0.298    l0.085-0.365C87.567,69.476,85.217,49.154,82.736,30.044z M26.399,88.262c-12.035,0-21.828-9.792-21.828-21.828    s9.792-21.827,21.828-21.827c12.036,0,21.828,9.791,21.828,21.827S38.435,88.262,26.399,88.262z M64.84,25.589l-0.213,1.946    c-3.037,27.54-4.297,44.908-3.763,51.793c-2.988-0.114-8.134-0.966-13.692-2.138c1.679-3.225,2.641-6.879,2.641-10.757    c0-12.91-10.503-23.413-23.413-23.413c-0.974,0-1.93,0.079-2.873,0.195c1.202-12.271,2.895-24.663,3.509-27.241    c0.17-0.717,0.818-1.596,1.567-2.614c1.478-2.008,3.425-4.652,3.952-8.876l37.819,9.153c-0.304,3.476-1.889,5.644-3.315,7.567    C66.004,22.627,65.007,23.97,64.84,25.589z M71.793,66.434c0,0.497-0.402,0.899-0.9,0.899c-0.494,0-0.897-0.402-0.897-0.899    V20.373c0-0.496,0.403-0.899,0.897-0.899c0.498,0,0.9,0.403,0.9,0.899V66.434z"></path><path fill="#da223e" d="M27.809,50.526c-0.716-0.671-1.836-0.645-2.519,0.059c-8.659,8.918-12.072,17.708-9.364,24.111    c1.701,4.021,5.683,6.422,10.653,6.422c4.747,0,8.593-2.561,10.289-6.849C38.995,68.888,37.732,59.824,27.809,50.526z     M21.956,74.23c-1.751,0-3.17-1.953-3.17-4.36s1.419-4.359,3.17-4.359s3.171,1.952,3.171,4.359S23.707,74.23,21.956,74.23z"></path></g></g><g xmlns="http://www.w3.org/2000/svg" display="none"><g display="inline"><path fill="#da223e" d="M72.191,44.726v-30.03c0-0.725-0.463-1.369-1.15-1.599L33.535,0.541C33.023,0.37,32.468,0.452,32.03,0.76    c-0.439,0.308-0.705,0.806-0.718,1.341c-0.103,4.417-0.814,25.756-1.424,43.769C18.139,46.288,8.703,55.951,8.703,67.801    c0,12.115,9.856,21.971,21.971,21.971c5.982,0,11.405-2.409,15.371-6.301c4.667,0.91,9.615,1.309,14.191,1.645    c3.797,0.278,7.381,0.542,9.911,1.091c0.118,0.026,0.238,0.038,0.357,0.038c0.382,0,0.755-0.129,1.06-0.374    c0.396-0.32,0.627-0.803,0.627-1.313v-6.176c2.966-2.68,4.474-5.651,4.276-7.54C75.795,64.396,73.533,54.153,72.191,44.726z     M10.191,67.801c0-11.295,9.189-20.483,20.483-20.483c11.294,0,20.482,9.188,20.482,20.483c0,11.294-9.188,20.482-20.482,20.482    C19.38,88.283,10.191,79.095,10.191,67.801z M68.818,82.544c-2.429-0.359-5.317-0.571-8.335-0.793    c-3.853-0.283-7.983-0.606-11.92-1.242c2.559-3.592,4.08-7.972,4.08-12.708c0-9.716-6.345-17.964-15.102-20.855    c0.838-5.393,1.711-10.025,2.398-12.211c0.14-0.444-0.107-0.917-0.552-1.058c-0.446-0.138-0.918,0.107-1.058,0.552    c-0.691,2.201-1.569,6.844-2.415,12.26c-0.867-0.213-1.75-0.386-2.656-0.491c0.411-12.153,0.869-25.818,1.155-34.794    l34.403,10.996V82.544z"></path><path fill="#da223e" d="M31.997,52.872c-0.672-0.629-1.725-0.604-2.364,0.056c-8.126,8.368-11.328,16.616-8.787,22.627    c1.595,3.773,5.333,6.025,9.997,6.025c4.454,0,8.063-2.402,9.654-6.427C42.493,70.103,41.309,61.599,31.997,52.872z     M26.504,75.117c-1.644,0-2.975-1.833-2.975-4.092s1.331-4.091,2.975-4.091c1.642,0,2.976,1.832,2.976,4.091    S28.146,75.117,26.504,75.117z"></path></g></g><g xmlns="http://www.w3.org/2000/svg" display="none"><g display="inline"><path fill="#da223e" d="M78.629,32.161c-0.327-2.372-0.554-4.047-0.624-4.704c-0.18-1.722-1.298-3.148-2.482-4.659    c-1.545-1.969-3.267-4.169-3.682-7.641v-1.161c0-0.878-0.638-1.643-1.538-1.849L21.115,0.884    c-0.597-0.137-1.231-0.008-1.716,0.354c-0.485,0.36-0.767,0.912-0.767,1.495c0,4.65-2.013,7.237-3.79,9.52    c-1.052,1.353-2.046,2.63-2.426,4.141c-0.125,0.495-8.764,53.678-3.849,60.049c3.607,4.812,38.581,11.64,47.037,11.64    c0.354,0,0.646-0.016,0.904-0.04c0.029,0,0.052,0.012,0.083,0.012c1.894,0,5.4-1.387,10.445-4.125    c13.709-1.391,14.631-2.563,15.128-3.196l0.249-0.314l0.096-0.387C84.031,73.888,81.403,52.384,78.629,32.161z M58.61,27.449    l-0.236,2.054c-3.397,29.143-4.807,47.518-4.211,54.809c-9.705-0.339-39.854-7.297-42.256-9.986    c-0.013-0.021-0.102-0.137-0.115-0.157c-3.065-4.302,3.162-51.429,4.537-56.895c0.19-0.759,0.915-1.689,1.753-2.766    c1.653-2.125,3.831-4.922,4.419-9.393L64.8,14.801c-0.339,3.679-2.111,5.972-3.709,8.007    C59.914,24.314,58.799,25.735,58.61,27.449z M66.388,70.67c0,0.527-0.45,0.954-1.005,0.954c-0.556,0-1.005-0.427-1.005-0.954    V21.928c0-0.525,0.449-0.951,1.005-0.951c0.555,0,1.005,0.426,1.005,0.951V70.67z"></path></g></g><g xmlns="http://www.w3.org/2000/svg" display="none"><path display="inline" fill="#da223e" d="M66.748,72.179c-0.701-6.535-3.063-16.913-4.462-26.471v-30.44   c0-0.735-0.483-1.388-1.2-1.621L21.945,0.919c-0.534-0.173-1.113-0.09-1.571,0.223c-0.458,0.311-0.736,0.816-0.749,1.359   c-0.191,7.988-2.403,70.565-2.424,71.196c-0.031,0.833,0.561,1.563,1.399,1.734c1.373,0.277,1.598,0.707,2.202,1.861   c0.852,1.62,2.016,3.841,6.522,5.611c6.678,2.618,15.075,3.216,22.487,3.743c3.961,0.282,7.703,0.551,10.343,1.107   c0.123,0.023,0.249,0.038,0.373,0.038c0.398,0,0.789-0.133,1.105-0.38c0.413-0.324,0.654-0.813,0.654-1.331v-6.259   C65.381,77.106,66.955,74.091,66.748,72.179z M50.067,83.235c-7.153-0.509-15.26-1.087-21.424-3.505   c-3.285-1.29-4.007-2.662-4.703-3.993c-0.233-0.442-0.488-0.919-0.826-1.385c0.215-8.756,3.577-32.785,5.516-38.773   c0.146-0.451-0.112-0.93-0.576-1.072c-0.465-0.143-0.958,0.107-1.104,0.56c-1.86,5.751-5.015,27.885-5.532,37.764   c-0.2-0.115-0.417-0.221-0.652-0.318c0.256-7.271,1.516-43.063,2.098-60.784l35.903,11.146V84.04   C56.23,83.675,53.217,83.463,50.067,83.235z"></path></g><g xmlns="http://www.w3.org/2000/svg" display="none"><g display="inline"><circle fill="#da223e" cx="46.854" cy="68.404" r="1.916"></circle><circle fill="#da223e" cx="56.327" cy="67.461" r="1.916"></circle><path fill="#da223e" d="M59.64,75.69c-0.469,0.124-0.748,0.604-0.623,1.073c0.143,0.542-0.572,1.457-1.746,1.868    c-0.662,0.234-2.215,0.524-3.221-1.113l1.684-3.575c0.135-0.281,0.107-0.609-0.066-0.865c-0.172-0.257-0.459-0.394-0.777-0.388    l-4.951,0.277c-0.324,0.018-0.614,0.215-0.748,0.511c-0.137,0.295-0.098,0.642,0.101,0.9l2.741,3.578    c-0.291,0.603-1.634,1.582-3.113,1.673c-1.4,0.091-2.224-0.703-2.426-2.349c-0.061-0.481-0.49-0.824-0.98-0.764    c-0.481,0.059-0.823,0.497-0.763,0.979c0.303,2.462,1.773,3.897,3.958,3.897c0.104,0,0.212-0.005,0.319-0.011    c0.813-0.05,1.689-0.312,2.469-0.715c0.24,2.007,1.209,3.35,2.295,3.132c1.283-0.256,1.521-1.845,1.328-3.367    c0.363,0.093,0.73,0.138,1.092,0.138c0.576,0,1.137-0.105,1.641-0.281c1.76-0.618,3.311-2.274,2.861-3.976    C60.589,75.845,60.108,75.569,59.64,75.69z"></path><path fill="#da223e" d="M85.45,17.994c-1.678-3.48-5.137-5.621-8.613-5.281c0.195-2.005-0.391-3.997-1.709-5.722    c-1.816-2.38-4.766-3.858-7.695-3.858c-1.949,0-3.795,0.649-5.334,1.876c-4.355,3.467-5.564,7.498-4.111,13.832l-0.023,0.023    c-0.709-0.843-1.814-1.504-2.861-1.979c0.355-1.791,0.518-4-0.436-5.27c-0.584-0.778-1.434-1.153-2.115-1.333    c-0.619-1.059-1.576-2.558-2.359-3.161c-1.352-1.047-2.841-1.983-4.419-2.784c-1.325-0.675-3.385-0.067-4.891,0.703    c-1.77-3.172-2.982-3.361-3.42-3.429c-1.377-0.219-3.646,0.273-4.931,0.573c-0.905-0.688-2.004-1.34-2.951-1.375    c-2.04-0.071-3.991-0.016-5.764,0.174c-0.472,0.051-1.255,0.135-2.428,2.062c-0.812-0.697-1.578-1.049-2.289-1.049    c-0.186,0-0.523,0.053-0.7,0.111c-1.791,0.587-4.07,3.036-5.091,4.215c-1.085,0.399-3.489,1.461-4.651,3.374    c-0.685,1.129-0.279,2.425,0.353,3.489c-1.188,1.208-1.742,2.31-1.651,3.284c0.128,1.368,0.438,2.83,0.922,4.344    c0.564,1.771,2.504,3.717,3.844,4.9c-0.419,0.88-0.62,1.849-0.216,2.72c0.394,0.849,0.637,1.569,0.788,2.185    c-2.801,1.418-4.499,3.174-4.499,5.296V79.23c0,6.794,17.25,9.889,33.278,9.889c16.028,0,33.276-3.095,33.276-9.889V35.916    c0-1.545-0.898-2.896-2.465-4.065c1.092,0.184,2.123,0.308,3.055,0.308c3.77,0,6.607-1.452,9.197-4.708    C86.673,24.771,87.015,21.236,85.45,17.994z M11.627,19.747c-0.374-1.173-0.624-2.294-0.743-3.335    c0.24-0.375,0.936-1.091,1.586-1.62c0.37-0.301,0.601-0.741,0.641-1.216c0.041-0.474-0.114-0.947-0.428-1.306    c-0.291-0.333-0.599-0.781-0.762-1.092c0.714-0.777,2.106-1.419,2.917-1.667c0.329-0.099,0.622-0.292,0.842-0.557    c1.027-1.23,2.501-2.693,3.376-3.276c0.373,0.33,0.91,0.928,1.321,1.485c0.372,0.506,0.982,0.778,1.609,0.705    c0.623-0.069,1.162-0.464,1.414-1.039c0.402-0.916,0.95-1.932,1.282-2.402c1.444-0.129,3.021-0.165,4.66-0.112    c0.247,0.099,0.764,0.437,1.236,0.804c0.334,0.442,0.873,0.722,1.442,0.722c0.303,0,0.579-0.065,1.244-0.221    c0.91-0.212,2.452-0.537,3.407-0.558c0.446,0.472,1.295,1.883,1.897,3.179c0.218,0.468,0.63,0.816,1.128,0.953    c0.498,0.135,1.028,0.048,1.455-0.242c0.994-0.677,2.461-1.4,3.135-1.432c1.345,0.689,2.609,1.49,3.748,2.37    c0.313,0.271,1.184,1.592,1.861,2.826c0.297,0.538,0.854,0.883,1.467,0.908c0.086,0.004,0.328,0.052,0.469,0.111    c0.135,0.61-0.082,2.312-0.486,3.743c-0.252,0.897,0.24,1.837,1.123,2.139c1.08,0.372,2.307,1.001,2.725,1.387    c-0.043,0.229-0.17,0.581-0.336,0.966l-8.704,8.704l-29.761,2.053c0.102-1.335-0.13-3.118-1.131-5.404    c0.113-0.251,0.342-0.634,0.555-0.915c0.586-0.766,0.444-1.862-0.317-2.454C14.142,22.901,11.974,20.836,11.627,19.747z     M64.319,83.02c-5.031,1.42-12.713,2.588-22.845,2.588c-2.045,0-3.97-0.057-5.817-0.144V61.145    c-0.056-3.052,0.292-8.341,1.464-9.536c0.051-0.051,0.092-0.083,0.124-0.1c0.816,0.645,3.06,4.655,5.131,10.225    c0.114,0.305,0.386,0.523,0.709,0.565c4.878,0.637,10.479-0.372,14.982-1.185l1.719-0.307c0.398-0.069,0.697-0.401,0.725-0.805    c0.354-5.091,1.531-9.889,2.557-10.581c0.641,1.07,1.156,5.779,1.25,9.808V83.02z M66.077,82.478V59.21    c-0.07-2.95-0.402-9.955-1.998-11.287c-0.316-0.267-0.709-0.38-1.088-0.319c-2.898,0.452-3.869,7.783-4.178,11.595l-1.057,0.188    c-4.221,0.763-9.434,1.703-13.923,1.232c-1.022-2.679-4.33-10.893-6.498-10.893c-0.378,0-0.938,0.113-1.467,0.653    c-2.026,2.063-1.994,9.357-1.967,10.782v24.207c-14.411-0.91-22.193-4.277-22.193-6.138V40.677    c5.856,3.493,18.129,5.126,29.766,5.126c11.636,0,23.909-1.633,29.765-5.126V79.23C71.239,80.114,69.46,81.338,66.077,82.478z     M83.165,26.357c-2.258,2.835-4.598,4.045-7.824,4.045c-1.352,0-2.889-0.217-4.699-0.662c-0.295-0.075-0.613,0.015-0.83,0.231    l-7.006,7.005c-0.809,0.238-3.982,1.118-7.939,1.538c-2.387,0.255-4.852,0.383-7.329,0.383h-0.002c-2.912,0-5.289-0.18-6.79-0.333    l18.83-18.829c0.219-0.217,0.307-0.532,0.232-0.831c-1.475-5.992-0.557-9.386,3.383-12.522c1.229-0.977,2.695-1.494,4.242-1.494    c2.395,0,4.809,1.214,6.301,3.167c1.172,1.535,1.578,3.325,1.229,5.085c-1.492,0.473-2.563,1.12-3.422,2.58    c-0.246,0.418-0.107,0.957,0.311,1.203c0.139,0.083,0.293,0.121,0.445,0.121c0.301,0,0.592-0.155,0.758-0.432    c0.682-1.16,1.51-1.557,2.996-1.961c0.016-0.004,0.023-0.015,0.037-0.019c3.037-0.765,6.27,0.984,7.781,4.124    C85.132,21.376,84.868,24.218,83.165,26.357z"></path></g></g><g xmlns="http://www.w3.org/2000/svg" display="none"><path display="inline" fill="#da223e" d="M86.594,28.805c0.004-0.167,0.017-0.338-0.027-0.509l-1.884-7.351   c-0.007-0.019-0.022-0.035-0.028-0.054c-0.183-0.572-0.402-1.141-0.671-1.701c-2.026-4.202-6.038-6.955-10.296-6.867   c0.024-2.314-0.746-4.581-2.269-6.572c-2.341-3.066-6.142-4.97-9.919-4.97c-2.535,0-4.932,0.844-6.933,2.438   c-5.44,4.331-7.024,9.329-5.337,17.081L22.658,46.876c-1.992-0.437-3.751-0.648-5.354-0.648c-4.753,0-8.48,1.903-11.73,5.987   c-2.306,2.893-2.977,6.551-1.979,10.116c0.011,0.076-0.007,0.149,0.012,0.222l1.309,5.103c0.185,1.186,0.536,2.374,1.094,3.531   c2.027,4.202,6.076,6.918,10.297,6.867c-0.024,2.314,0.748,4.581,2.268,6.572c2.341,3.066,6.142,4.97,9.919,4.97h0.001   c2.534,0,4.932-0.844,6.933-2.438c5.44-4.331,7.021-9.329,5.335-17.088l26.573-26.568c1.991,0.433,3.753,0.648,5.355,0.648   c4.751,0,8.479-1.903,11.73-5.984C86.563,35.476,87.297,32.125,86.594,28.805z M8.445,54.501c2.567-3.225,5.216-4.604,8.859-4.604   c1.57,0,3.367,0.257,5.494,0.778c0.623,0.151,1.281-0.028,1.735-0.484l28.014-28.013c0.454-0.455,0.637-1.113,0.483-1.739   c-1.72-6.98-0.717-10.733,3.822-14.349c1.364-1.084,2.928-1.638,4.647-1.638c2.659,0,5.341,1.353,7.002,3.525   c1.384,1.812,1.837,3.942,1.276,6c-0.095,0.348-0.074,0.705,0.029,1.037c-1.343,0.544-2.37,1.312-3.218,2.753   c-0.258,0.437-0.11,0.999,0.325,1.255c0.146,0.088,0.307,0.129,0.465,0.129c0.313,0,0.62-0.164,0.791-0.455   c0.847-1.435,1.912-1.947,3.709-2.434c0.012-0.003,0.02-0.013,0.03-0.016c0.04-0.009,0.081-0.006,0.12-0.016   c3.364-0.923,6.952,1.037,8.646,4.552c1.395,2.893,1.109,6.022-0.759,8.372c-2.566,3.225-5.216,4.6-8.858,4.6   c-1.57,0-3.368-0.253-5.494-0.778c-0.621-0.155-1.282,0.032-1.735,0.484L35.815,61.475c-0.454,0.452-0.637,1.113-0.485,1.735   c1.72,6.984,0.719,10.739-3.82,14.354c-1.366,1.088-2.929,1.638-4.647,1.638c-2.659,0-5.341-1.35-7.002-3.524   c-1.383-1.813-1.837-3.943-1.275-6.001c0.02-0.073,0.019-0.146,0.029-0.219c0.713-1.985,2.508-3.449,3.322-3.715   c0.482-0.154,0.747-0.67,0.591-1.153c-0.156-0.483-0.672-0.756-1.155-0.591c-1.21,0.392-2.816,1.757-3.846,3.509   c-0.225-0.095-0.466-0.148-0.712-0.148c-0.161,0-0.324,0.021-0.484,0.066c-3.359,0.916-6.95-1.037-8.646-4.556   C6.291,59.977,6.574,56.847,8.445,54.501z"></path></g><g xmlns="http://www.w3.org/2000/svg" display="none"><g display="inline"><path fill="#da223e" d="M48.447,68.146c-0.023-0.471-0.385-0.798-0.898-0.813c-1.369,0.069-2.771,0.115-4.199,0.134    c-0.472,0.006-0.851,0.394-0.843,0.867c0.006,0.468,0.388,0.846,0.855,0.846c0.003,0,0.007,0,0.012-0.004    c1.449-0.018,2.871-0.064,4.262-0.132C48.106,69.02,48.471,68.616,48.447,68.146z"></path><path fill="#da223e" d="M58.21,66.146c-0.725,0.148-1.651,0.272-2.549,0.392c-0.483,0.065-0.958,0.129-1.391,0.193    c-0.467,0.071-0.788,0.507-0.718,0.975c0.063,0.423,0.429,0.728,0.845,0.728c0.043,0,0.086-0.004,0.13-0.01    c0.423-0.063,0.888-0.125,1.36-0.188c0.938-0.126,1.907-0.257,2.667-0.411c0.463-0.097,0.761-0.549,0.666-1.012    C59.125,66.352,58.68,66.054,58.21,66.146z"></path><path fill="#da223e" d="M57.84,75.821c-0.413-0.238-0.935-0.095-1.169,0.313l-0.983,1.71c-1.154,0.183-2.182,0.342-3.205,0.48    l1.58-3.349c0.129-0.274,0.105-0.596-0.064-0.844c-0.168-0.25-0.463-0.38-0.756-0.377l-4.826,0.269    c-0.316,0.018-0.599,0.209-0.73,0.498c-0.132,0.286-0.096,0.625,0.098,0.875l2.444,3.193c-1.063,0.103-2.202,0.186-3.542,0.244    l-1.533-1.668c-0.32-0.349-0.859-0.372-1.209-0.051c-0.348,0.321-0.37,0.861-0.05,1.209l1.801,1.961    c0.162,0.177,0.391,0.276,0.629,0.276c0.012,0,0.021-0.003,0.033-0.003c4.161-0.165,6.584-0.548,10.002-1.091    c0.255-0.038,0.479-0.191,0.607-0.415l1.187-2.063C58.39,76.579,58.248,76.058,57.84,75.821z"></path><path fill="#da223e" d="M88.736,25.34l-18.096-6.437L63.27,1.097c-0.11-0.268-0.349-0.461-0.634-0.514    c-0.281-0.058-0.576,0.042-0.776,0.251c-4.188,4.401-3.409,9.058-2.723,13.167c0.572,3.416,1.064,6.367-1.216,8.763    c-0.407,0.427-0.896,0.812-1.426,1.178c0.283-0.829,0.465-1.709,0.29-2.461c-0.334-1.444-1.963-2.493-3.453-3.167    c0.35-1.746,0.504-3.898-0.423-5.136c-0.571-0.758-1.399-1.124-2.061-1.299c-0.605-1.033-1.538-2.493-2.3-3.08    c-1.316-1.019-2.766-1.932-4.308-2.714c-1.294-0.658-3.302-0.065-4.769,0.686C37.75,3.68,36.567,3.496,36.14,3.429    c-1.338-0.213-3.552,0.265-4.805,0.559c-0.882-0.67-1.953-1.306-2.877-1.34c-1.987-0.071-3.889-0.017-5.615,0.169    c-0.461,0.049-1.225,0.132-2.369,2.01c-0.791-0.68-1.536-1.022-2.23-1.022c-0.181,0-0.512,0.052-0.683,0.108    c-1.745,0.573-3.967,2.958-4.961,4.109C11.541,8.41,9.2,9.446,8.065,11.312c-0.667,1.1-0.27,2.361,0.346,3.398    c-1.157,1.178-1.698,2.25-1.61,3.201c0.125,1.329,0.428,2.753,0.899,4.234c0.55,1.725,2.439,3.622,3.746,4.775    c-0.408,0.858-0.604,1.803-0.209,2.651c0.61,1.321,0.861,2.332,0.938,3.09C9.722,34,8.246,35.63,8.246,37.579v42.217    c0,6.621,16.812,9.637,32.434,9.637c15.621,0,32.432-3.016,32.432-9.637V37.579c0-2.429-2.283-4.364-5.917-5.852    c0.043-0.051,0.084-0.113,0.128-0.159c1.25-1.312,2.78-1.897,4.964-1.897c1.178,0,2.419,0.16,3.737,0.33    c1.409,0.181,2.865,0.369,4.352,0.369c3.57-0.001,6.332-1.155,8.69-3.634c0.201-0.21,0.28-0.507,0.216-0.789    C89.214,25.666,89.008,25.437,88.736,25.34z M10.963,21.105c-0.366-1.147-0.61-2.24-0.726-3.251    c0.233-0.366,0.913-1.064,1.546-1.58c0.361-0.293,0.585-0.722,0.624-1.185c0.042-0.462-0.11-0.923-0.416-1.273    c-0.285-0.325-0.584-0.761-0.743-1.065c0.696-0.757,2.052-1.382,2.842-1.624c0.32-0.097,0.604-0.285,0.819-0.542    c1.002-1.2,2.441-2.625,3.29-3.193c0.366,0.322,0.888,0.903,1.289,1.447c0.361,0.492,0.967,0.754,1.565,0.687    c0.607-0.067,1.134-0.453,1.38-1.011c0.392-0.894,0.927-1.885,1.251-2.342c1.408-0.126,2.947-0.161,4.54-0.109    c0.242,0.097,0.744,0.426,1.204,0.784c0.326,0.431,0.851,0.704,1.406,0.704c0.295,0,0.563-0.063,1.212-0.215    c0.887-0.208,2.425-0.553,3.321-0.543c0.437,0.46,1.262,1.835,1.85,3.099c0.212,0.456,0.613,0.795,1.098,0.929    c0.483,0.13,1.004,0.046,1.419-0.236c0.969-0.66,2.397-1.365,3.056-1.396c1.312,0.674,2.542,1.453,3.653,2.311    c0.305,0.265,1.152,1.551,1.813,2.753c0.289,0.524,0.831,0.861,1.431,0.886c0.082,0.004,0.318,0.05,0.457,0.108    c0.129,0.595-0.082,2.253-0.474,3.648c-0.246,0.874,0.234,1.79,1.093,2.084c1.054,0.361,2.247,0.976,2.655,1.352    c-0.09,0.472-0.519,1.458-0.973,2.211c-0.278,0.462-0.31,1.018-0.118,1.507c-1.523,0.599-3.21,1.161-4.999,1.752    c-3.553,1.176-7.565,2.512-11.569,4.564l-20.156,1.391c0.099-1.301-0.126-3.04-1.103-5.268c0.111-0.245,0.332-0.618,0.54-0.891    c0.57-0.747,0.434-1.814-0.308-2.391C13.413,24.18,11.3,22.166,10.963,21.105z M62.944,69.002    c-1.141,0.318-2.367,0.616-3.719,0.885c-0.463,0.092-0.766,0.543-0.673,1.005c0.08,0.407,0.438,0.69,0.838,0.69    c0.056,0,0.111-0.006,0.168-0.018c1.216-0.242,2.327-0.51,3.386-0.79v1.662c-0.801,0.213-1.681,0.422-2.659,0.637    c-0.462,0.101-0.753,0.555-0.653,1.018c0.087,0.401,0.44,0.675,0.835,0.675c0.06,0,0.122-0.009,0.184-0.021    c0.832-0.183,1.583-0.362,2.294-0.545v1.497c-0.973,0.245-2.074,0.486-3.38,0.752c-0.463,0.095-0.763,0.549-0.668,1.012    c0.082,0.403,0.439,0.684,0.837,0.684c0.058,0,0.115-0.006,0.173-0.018c1.146-0.233,2.139-0.451,3.038-0.669v6.028    c-4.904,1.386-12.39,2.523-22.264,2.523c-1.995,0-3.87-0.056-5.669-0.142V79.71c1.857,0.089,3.741,0.145,5.669,0.145    c0.473,0,0.856-0.384,0.856-0.855c0-0.475-0.383-0.857-0.856-0.857c-1.928,0-3.813-0.056-5.669-0.145V76.49    c1.383,0.065,2.782,0.112,4.194,0.127c0.003,0.003,0.007,0.003,0.01,0.003c0.469,0,0.851-0.377,0.855-0.846    c0.006-0.475-0.372-0.861-0.845-0.867c-1.419-0.018-2.824-0.064-4.214-0.133v-1.698c1.487,0.071,2.992,0.124,4.528,0.139    l1.141,0.006c0.473,0,0.856-0.383,0.856-0.854c0-0.475-0.383-0.858-0.856-0.858l-1.124-0.006    c-1.543-0.015-3.054-0.067-4.546-0.138v-13.93l6.803,5.666c0.158,0.13,0.355,0.21,0.556,0.199    c7.345-0.061,14.441-1.166,17.152-1.638c0.249-0.044,0.467-0.196,0.594-0.416l2.829-4.908V69.002z M64.657,82.959v-5.955    c1.383-0.41,2.518-0.867,3.609-1.486c0.412-0.232,0.557-0.755,0.323-1.164c-0.231-0.41-0.752-0.558-1.166-0.324    c-0.837,0.475-1.726,0.846-2.767,1.179v-1.477c1.869-0.566,3.278-1.165,4.433-1.869c0.402-0.248,0.53-0.772,0.283-1.177    c-0.247-0.403-0.77-0.533-1.177-0.283c-0.927,0.566-2.069,1.062-3.539,1.533v-1.656c1.095-0.343,2.107-0.705,2.983-1.097    c0.431-0.192,0.625-0.698,0.432-1.13c-0.192-0.434-0.698-0.625-1.131-0.433c-0.678,0.303-1.459,0.587-2.284,0.861V53.141    c0-0.388-0.261-0.727-0.636-0.827c-0.371-0.096-0.768,0.065-0.962,0.399l-4.227,7.331c-2.871,0.487-9.389,1.458-16.165,1.54    l-7.966-6.633c-0.256-0.214-0.615-0.26-0.911-0.118c-0.301,0.142-0.494,0.443-0.494,0.775v15.67    c-2.099-0.136-4.139-0.327-6.1-0.578c-0.47-0.05-0.896,0.271-0.957,0.743c-0.061,0.469,0.272,0.896,0.741,0.955    c2.028,0.26,4.141,0.457,6.315,0.593v1.678c-3.072-0.201-6.032-0.505-8.724-0.938c-0.469-0.074-0.905,0.241-0.98,0.707    s0.242,0.905,0.709,0.981c2.774,0.445,5.828,0.761,8.995,0.962v1.523c-2.095-0.135-4.139-0.321-6.108-0.571    c-0.48-0.057-0.896,0.271-0.957,0.739c-0.06,0.469,0.273,0.896,0.742,0.959c2.039,0.259,4.154,0.454,6.324,0.589v6.156    c-14.045-0.891-21.629-4.169-21.629-5.981V42.22c5.708,3.405,17.669,4.997,29.011,4.997c11.339,0,23.302-1.592,29.009-4.997    v37.576C69.689,80.656,67.954,81.848,64.657,82.959z M80.376,28.658c-1.374,0.001-2.777-0.18-4.134-0.354    c-1.373-0.177-2.667-0.343-3.955-0.343c-1.67,0-4.131,0.252-6.201,2.428c-1.38,1.448-2.247,4.062-3.002,6.455    c-1.182,0.549-5.638,2.444-11.835,2.953c-4.056,0.333-8.206,0.501-12.339,0.501c-4.978,0-8.849-0.248-10.966-0.423    c6.293-5.936,13.808-8.423,19.923-10.447c4.759-1.575,8.868-2.936,11.293-5.481c2.87-3.016,2.257-6.681,1.664-10.226    c-0.591-3.543-1.201-7.196,1.4-10.674l6.979,16.863c0.092,0.224,0.276,0.398,0.503,0.479l17.134,6.095    C85.04,27.979,82.997,28.658,80.376,28.658z"></path></g></g><g xmlns="http://www.w3.org/2000/svg" display="none"><g display="inline"><path fill="#da223e" d="M84.145,12.717l-2.764-5.783c-0.102-0.232-0.207-0.452-0.316-0.665L80.6,5.298    c-0.147-0.307-0.38-0.526-0.638-0.707c-0.094-0.106-0.18-0.246-0.274-0.339c-2.086-2.086-6.97-3.436-12.442-3.436    c-5.429,0-15.86,1.32-24.706,10.167C34.736,18.787,31.645,27.54,29.16,34.572c-1.623,4.598-3.025,8.565-5.28,10.822    c-1.732,1.73-3.599,2.086-5.867,2.086c-0.765,0-1.542-0.039-2.331-0.081c-0.88-0.042-1.772-0.087-2.677-0.087    c-3.163,0-7.314,0.52-11.384,4.588c-0.423,0.423-0.618,1.023-0.526,1.614c0.049,0.316,0.181,0.604,0.37,0.85l2.317,5.679    c0.189,0.462,0.549,0.791,0.97,0.981c0.126,0.12,0.263,0.227,0.421,0.307l17.785,9.173l9.169,17.787    c0.274,0.532,0.786,0.9,1.377,0.991c0.097,0.016,0.194,0.022,0.289,0.022c0.492,0,0.972-0.193,1.325-0.549    c4.964-4.963,4.709-10.006,4.504-14.061c-0.166-3.29-0.297-5.893,2.007-8.198c2.255-2.253,6.223-3.654,10.819-5.278    c7.034-2.486,15.787-5.579,23.589-13.38c5.794-5.795,9.363-13.547,10.048-21.835C86.515,20.821,85.729,15.82,84.145,12.717z     M15.492,51.145c0.854,0.042,1.695,0.084,2.521,0.084c2.636,0,5.71-0.377,8.517-3.183c2.856-2.858,4.39-7.2,6.165-12.224    c2.481-7.026,5.293-14.984,12.495-22.188c7.891-7.891,17.206-9.069,22.055-9.069c5.431,0,8.888,1.434,9.791,2.337    c2.688,2.689,5.533,19.582-6.733,31.845C63.1,45.95,55.14,48.763,48.115,51.242c-5.025,1.775-9.364,3.309-12.222,6.166    c-3.482,3.484-3.279,7.497-3.1,11.039c0.158,3.129,0.31,6.115-1.714,9.17l-8.149-15.802c-0.179-0.349-0.46-0.629-0.808-0.807    L6.322,52.859C9.58,50.699,12.62,51.003,15.492,51.145z"></path><circle fill="#da223e" cx="61.66" cy="18.175" r="5.274"></circle></g></g><g xmlns="http://www.w3.org/2000/svg" display="none"><path display="inline" fill="none" d="M28.816,69.86V44.243c0-2.199,1.374-3.981,3.068-3.981h5.844   c0.262-7.119,2.692-14.645,12.614-12.636c-5.512,2.589-7.719,7.732-8.612,12.636h9.913c1.694,0,3.068,1.782,3.068,3.981V69.86   c0,2.195-1.374,3.978-3.068,3.978h-3.816c-0.055,1.918-0.081,3.89-0.096,5.716h20.865c0.63,0,1.16-0.369,1.437-0.887l0.093-0.187   c0.068-0.18,0.117-0.369,0.117-0.573V36.057c-0.119-0.383-1.355-1.325-2.45-1.813c-0.054-0.024-0.104-0.051-0.155-0.082   L42.07,19.866L16.501,34.162c-0.05,0.031-0.103,0.058-0.155,0.082c-1.114,0.505-2.332,1.43-2.454,1.867l0.005,41.796   c0,0.908,0.737,1.646,1.644,1.646h16.173c0-1.734,0-3.689,0-5.736C30.101,73.699,28.816,71.981,28.816,69.86z"></path><path display="inline" fill="none" d="M42.8,73.838h-6.104c-0.012,1.891-0.013,3.877-0.007,5.716h6.152   C42.831,77.718,42.817,75.726,42.8,73.838z"></path><path display="inline" fill="none" d="M45.199,17.108l24.286,13.581c0.459,0.214,1.547,0.77,2.561,1.61l5.3-9.542v-0.773   L52.083,5.235L45.199,17.108z"></path><path display="inline" fill="none" d="M24.387,21.134l-4.898,6.852l21.621-12.09c0.102-0.058,0.211-0.091,0.318-0.129l4.438-7.651   L24.387,21.134z"></path><g display="inline"><path fill="#da223e" d="M81.241,20.741c-0.014-0.136-0.041-0.265-0.081-0.393c-0.038-0.119-0.082-0.23-0.14-0.339    s-0.127-0.207-0.206-0.305c-0.085-0.105-0.177-0.196-0.281-0.281c-0.051-0.041-0.08-0.098-0.136-0.135L52.518,0.803    c-0.02-0.014-0.041-0.014-0.059-0.024c-0.017-0.01-0.027-0.027-0.044-0.037c-0.077-0.047-0.164-0.051-0.247-0.084    c-0.107-0.044-0.207-0.102-0.322-0.129c-0.037-0.007-0.074-0.014-0.115-0.021c-0.111-0.017-0.219-0.003-0.33,0    c-0.104,0-0.201-0.014-0.305,0.003c-0.039,0.007-0.073,0.017-0.11,0.024c-0.118,0.027-0.222,0.088-0.334,0.135    c-0.079,0.038-0.166,0.044-0.242,0.088l-28.407,17.22c-0.228,0.139-0.425,0.322-0.58,0.539L10.4,33.935    c-0.317,0.444-0.422,0.973-0.338,1.471c-0.04,0.217-0.098,0.424-0.098,0.651v41.851c0,3.076,2.501,5.58,5.578,5.58h15.306v2.982    c0,1.972,1.762,3.036,3.42,3.036c1.652,0,3.326-1.044,3.326-3.036l-0.009-1.501c-0.003-0.512-0.006-1-0.009-1.481h4.417    c0.004,1.183,0.008,2.25,0.009,3.087c0,1.593,1.392,2.796,3.238,2.796c1.864,0,3.218-1.193,3.296-2.897    c0.025-0.542,0.034-1.616,0.041-2.985h20.02c2.06,0,3.839-1.135,4.808-2.795c0.014-0.027,0.037-0.048,0.051-0.075l0.136-0.271    c0.055-0.112,0.118-0.214,0.164-0.329l7.314-14.569c0.01-0.021,0.007-0.041,0.017-0.062c0.055-0.118,0.071-0.247,0.102-0.376    c0.031-0.129,0.075-0.254,0.078-0.386c0-0.021,0.014-0.037,0.014-0.062V20.927C81.278,20.859,81.246,20.805,81.241,20.741z     M24.387,21.134L45.866,8.115l-4.438,7.651c-0.107,0.038-0.217,0.071-0.318,0.129l-21.621,12.09L24.387,21.134z M37.559,79.554    c-0.005-2.239-0.002-4.133,0.007-5.716h4.368c0.017,1.854,0.03,3.826,0.041,5.716H37.559z M48.094,64.093    c-0.984,1.524-1.203,7.956-1.248,18.544c-0.008,1.752-0.014,3.121-0.043,3.758c-0.053,1.18-1.312,1.24-1.563,1.24    c-0.604,0-1.503-0.284-1.503-1.063c-0.001-0.783-0.043-19.202-0.242-20.883c-0.146-1.233-1.331-1.972-3.167-1.972    c-1.411,0-3.678,0.478-4.141,1.785c-0.327,0.922-0.424,6.567-0.336,19.477l0.009,1.491c0,1.264-1.428,1.301-1.591,1.301    c-0.583,0-1.685-0.271-1.685-1.301V51.918c0-2.321,1.289-4.618,2.161-5.442l0.128-0.121c0.522-0.495,1.214-1.125,2.048-1.79    c0.151,2.433,0.449,4.527,0.631,5.801l0.109,0.789c0.055,0.44,0.428,0.76,0.86,0.76c0.035,0,0.072,0,0.108-0.007    c0.475-0.058,0.812-0.492,0.753-0.97l-0.114-0.819c-0.545-3.813-2.206-15.421,2.69-20.043c1.423-1.342,3.341-1.969,5.722-1.904    c-7.563,5.357-7.463,16.214-7.418,21.083c0.007,0.708,0.013,1.305-0.005,1.759c-0.019,0.48,0.354,0.884,0.833,0.901    c0.48-0.021,0.883-0.353,0.901-0.834c0.019-0.475,0.013-1.098,0.007-1.84c-0.017-1.867-0.032-4.436,0.308-7.16h8.036    c1.677,0,2.639,1.159,2.639,3.186v13.103C52.097,59.318,49.03,62.643,48.094,64.093z M70.242,77.907    c0,0.204-0.049,0.394-0.117,0.573l-0.093,0.187c-0.276,0.518-0.807,0.887-1.437,0.887H48.6c0.014-1.758,0.041-3.761,0.096-5.716    h2.947c1.694,0,3.068-1.782,3.068-3.978v-10.8l0.005-0.007V45.267c0-0.021-0.005-0.038-0.005-0.058v-0.966    c0-2.199-1.374-3.981-3.068-3.981h-9.055c0.871-4.652,2.989-9.44,8.121-11.85c0.339-0.159,0.537-0.519,0.493-0.888    c-0.044-0.373-0.321-0.674-0.689-0.749c-4.141-0.833-7.422-0.152-9.745,2.04c-2.823,2.667-3.752,7.149-3.91,11.446h-4.974    c-1.694,0-3.068,1.782-3.068,3.981V69.86c0,1.721,0.851,3.161,2.031,3.71v5.983H15.542c-0.907,0-1.644-0.738-1.644-1.646    l-0.005-41.796c0.122-0.438,1.339-1.362,2.454-1.867c0.052-0.024,0.105-0.051,0.155-0.082L42.07,19.866l25.566,14.296    c0.051,0.031,0.102,0.058,0.155,0.082c1.095,0.488,2.331,1.43,2.45,1.813V77.907z M77.345,22.757l-5.3,9.542    c-1.014-0.84-2.102-1.396-2.561-1.61L45.199,17.108l6.884-11.873l25.262,16.749V22.757z"></path><circle fill="#da223e" cx="39.72" cy="55.242" r="1.755"></circle></g></g><g xmlns="http://www.w3.org/2000/svg" display="none"><path display="inline" fill="#da223e" d="M88.602,40.711c-1.098-1.485-2.807-2.158-4.701-1.836   c-1.774,0.304-2.946,1.305-2.849,2.438c0.032,0.404,0.349,1.724,2.97,1.724c0.936,0,1.269,0.771,1.269,1.432   c0,1.174-0.979,2.438-3.131,2.438c-1.237,0-2.087-0.266-2.598-0.813c-1.016-1.083-0.868-3.417-0.696-6.121   c0.13-2.057,0.277-4.389-0.045-6.735c-0.365-2.647-2.223-8.866-11.563-9.406c-3.123-0.192-5.911,0.366-8.417,1.328   c-6.828-5.029-16.604-9.764-27.997-9.764c-3.21,0-6.405,0.393-9.498,1.172C14.11,18.389,8.622,22.66,5.031,29.259   c-5.106,9.389-4.74,21.024-3.425,24.887c3.651,10.74,28.086,12.346,42.328,12.346c0.001,0,0.003,0,0.004,0   c8.684,0,16.441-0.585,21.625-1.316c-0.126,0.206-0.257,0.381-0.398,0.487c-0.369,0.274-0.51,0.699-0.364,1.109   c0.347,0.977,2.236,1.275,3.206,1.275c0.057,0,0.111-0.003,0.161-0.003c1.252-0.051,2.108-0.585,2.344-1.464   c0.01-0.039,0.263-1.045,0.611-2.542c1.033-0.345,1.951-0.782,2.745-1.311c-0.08,0.331-0.156,0.638-0.225,0.897   c-0.257,0.989-0.41,1.585,0.006,2.078c0.384,0.451,0.989,0.398,1.216,0.378c0.115-0.009,0.269,0.018,0.455,0.035   c0.236,0.026,0.549,0.059,0.883,0.059c0.85,0,1.854-0.218,2.198-1.343c0.431-1.396,1.399-10.159,1.189-13.801   c0.779,0.177,1.668,0.271,2.686,0.271c4.263,0,6.068-2.323,6.769-3.707C90.154,45.398,89.972,42.567,88.602,40.711z M43.938,63.065   c-0.001,0-0.003,0-0.004,0c-22.34,0-36.95-3.749-39.084-10.023c-1.002-2.945-1.506-13.506,3.192-22.145   c3.114-5.726,7.872-9.427,14.139-11.006c2.82-0.708,5.734-1.068,8.663-1.068c9.012,0,17.724,3.498,24.457,8.037   c-1.392,0.806-2.685,1.7-3.878,2.615c-0.592-0.095-1.189-0.159-1.793-0.159c-4.768,0-8.316,2.771-9.039,7.06   c-0.502,2.972,0.276,5.894,2.248,8.45c2.799,3.634,7.836,6.269,12.829,6.721c0.918,0.083,1.798,0.124,2.615,0.124   c2.007,0,3.65-0.266,4.972-0.756c1.536,1.379,3.125,2.193,3.907,2.545c0.011,2.525-0.163,5.637-0.559,8.107   C61.678,62.381,53.156,63.065,43.938,63.065z M72.059,59.801c0.434-2.098,0.851-4.348,1.086-6.225   c0.175,0.324,0.352,0.655,0.508,0.936c0.23,0.414,0.47,0.848,0.638,1.189c-0.035,0.49-0.109,0.959-0.239,1.402   C73.718,58.223,73.051,59.11,72.059,59.801z M76.958,64.388c-0.094,0.315-0.619,0.321-1.476,0.228   c-0.191-0.021-0.369-0.039-0.517-0.042c0.038-0.174,0.092-0.378,0.142-0.569c0.343-1.322,0.98-3.783,0.915-7.792   c-0.009-0.558-0.398-1.263-1.048-2.435c-0.483-0.877-1.095-1.992-1.661-3.276c-0.024-0.349-0.068-0.649-0.153-0.845   c-2.02-4.639-0.417-11.262,0.602-13.921c0.292,1.313,0.301,2.928,0.313,4.607c0.024,3.819,0.071,8.355,3.973,10.159   C78.387,52.352,77.504,62.617,76.958,64.388z M87.695,46.915c-0.936,1.856-2.859,2.878-5.419,2.878c-6.632,0-6.661-4.383-6.69-9.46   c-0.018-2.485-0.032-4.834-0.927-6.605c-0.184-0.366-0.753-0.566-1.122-0.396c-1.481,0.694-4.403,10.862-1.762,16.927   c0.638,1.464-2.021,13.306-2.725,15.93c-0.028,0.105-0.15,0.194-0.365,0.26c-0.63,0.186-1.528,0.053-2.086-0.121   c2.1-2.822,2.094-11.544,2.068-13.382c-0.004-0.313-0.203-0.594-0.5-0.7c-0.318-0.114-7.82-2.916-7.18-10.434   c0.035-0.416-0.272-0.782-0.688-0.817c-0.386-0.032-0.781,0.271-0.816,0.691c-0.158,1.854,0.119,3.459,0.655,4.84   c-0.772,0.162-1.567,0.354-2.382,0.549c-2.469,0.594-5.032,1.16-7.613,1.181c-7.435-3.397-8.036-8.633-8.014-10.383   c2.035-0.351,4.137-2.137,6.725-4.339c4.538-3.86,10.185-8.677,18.314-8.193c7.927,0.46,9.766,5.274,10.155,8.105   c0.301,2.193,0.159,4.448,0.032,6.434c-0.194,3.052-0.359,5.69,1.102,7.249c0.814,0.868,2.024,1.29,3.701,1.29   c1.803,0,2.886-0.679,3.477-1.248c0.74-0.714,1.166-1.697,1.166-2.701c0-1.706-1.169-2.943-2.78-2.943   c-1.065,0-1.435-0.283-1.464-0.336c0.009-0.124,0.416-0.623,1.597-0.823c1.696-0.284,2.694,0.516,3.231,1.245   C88.431,43.025,88.558,45.206,87.695,46.915z"></path></g><g xmlns="http://www.w3.org/2000/svg" display="none"><g display="inline"><path fill="#da223e" d="M84.032,11.252l-1.234-1.156l-1.178,1.212c-4.678,4.817-6.488,9.642-4.967,13.241    c1.002,2.368,3.32,3.782,6.202,3.782c2.733,0,5.042-1.541,6.021-4.019C90.064,21.307,89.415,16.297,84.032,11.252z M85.678,23.046    c-0.472,1.188-1.474,1.844-2.822,1.844c-1.476,0-2.581-0.614-3.032-1.684c-0.653-1.544-0.124-4.446,3.077-8.199    C85.924,18.384,86.334,21.383,85.678,23.046z"></path><path fill="#da223e" d="M65.128,24.457L83.677,5.905c0.673-0.673,0.673-1.761,0-2.434c-0.673-0.672-1.761-0.672-2.434,0    L62.694,22.024l-5.51-5.51c-0.645-0.646-1.789-0.646-2.434,0L22.189,49.076c-1.314,1.313-2.616,2.01-3.764,2.01    c-1.075,0-1.822-0.586-2.172-0.938c-0.214-0.213-0.613-0.613-1.326-0.613c-0.695,0-1.322,0.422-1.589,1.063    c-0.252,0.607-0.361,0.867,0.814,2.207c-0.134-0.063-0.248-0.139-0.333-0.223c0.167,0.17,0.379,0.363,0.635,0.561    c0.932,1.023,2.483,2.582,5.002,5.117l1.172,1.18l-9.539,9.537c-3.464,3.467-7.316-0.303-7.354-0.34    c-0.029-0.031-0.057-0.057-0.086-0.084c-0.017-0.018-0.028-0.029-0.036-0.039l-0.002,0.004c-1.299-1.162-2.412-0.084-2.46-0.035    c-0.856,0.854-0.663,1.559,0.05,2.428l-0.029,0.029l0.129,0.131c0.077,0.076,0.158,0.152,0.24,0.23    c0.235,0.254,0.504,0.525,0.796,0.82l13.136,13.133c0.301,0.301,0.578,0.572,0.839,0.813c0.081,0.09,0.161,0.172,0.242,0.256    l0.127,0.127l0.032-0.029c0.469,0.383,0.89,0.613,1.312,0.613c0.361,0,0.723-0.172,1.114-0.563    c0.048-0.051,1.129-1.162-0.035-2.461l0.002-0.004C19.1,84,19.087,83.988,19.068,83.969c-0.025-0.027-0.052-0.055-0.079-0.08    c-0.038-0.039-3.808-3.893-0.342-7.354l9.536-9.539c3.361,3.338,5.244,5.193,6.332,6.197c0.191,0.25,0.397,0.48,0.615,0.697    l0.079-0.078c0.707,0.604,0.879,0.604,1.156,0.604c0.695,0,1.324-0.422,1.59-1.064c0.193-0.463,0.27-1.162-0.403-1.9h0.003    c-0.008-0.006-0.018-0.018-0.03-0.029c-0.022-0.023-0.044-0.047-0.068-0.068c-0.729-0.732-2.089-2.773,1.076-5.936l32.56-32.563    c0.323-0.323,0.504-0.759,0.504-1.215s-0.181-0.895-0.504-1.218L65.128,24.457z M49.395,26.736    c0.015,0.012,0.033,0.018,0.046,0.03l4.559,4.559c0.337,0.335,0.337,0.88,0,1.215c-0.167,0.169-0.388,0.255-0.608,0.255    c-0.22,0-0.439-0.086-0.608-0.255l-4.559-4.556c-0.013-0.015-0.018-0.033-0.029-0.047L49.395,26.736z M53.771,22.436    c-0.014-0.012-0.019-0.032-0.031-0.044l1.202-1.203c0.013,0.015,0.032,0.018,0.046,0.033l4.559,4.556    c0.335,0.338,0.335,0.883,0,1.218c-0.169,0.169-0.389,0.252-0.607,0.252c-0.222,0-0.442-0.083-0.609-0.252L53.771,22.436z     M16.213,74.102c-1.479,1.479-2.191,3.092-2.39,4.668c-1.425-1.414-2.58-2.559-2.58-2.559c-0.003-0.002-1.063-1.072-2.392-2.412    c1.579-0.199,3.192-0.91,4.672-2.389l9.533-9.531l2.159,2.172c0.187,0.188,0.345,0.344,0.524,0.521L16.213,74.102z M36.098,62.984    c-1.48,1.479-2.34,2.938-2.737,4.307c-2.703-2.684-5.711-5.674-5.711-5.674s-4.037-4.059-7.324-7.365    c1.46-0.428,2.899-1.344,4.298-2.742l2.934-2.938c0.012,0.016,0.018,0.033,0.03,0.045l4.559,4.561    c0.169,0.17,0.389,0.252,0.608,0.252c0.221,0,0.441-0.082,0.609-0.252c0.336-0.334,0.336-0.879,0-1.215l-4.559-4.561    c-0.013-0.013-0.031-0.019-0.044-0.03l3.661-3.661c0.012,0.015,0.016,0.033,0.03,0.044l4.559,4.559    c0.169,0.17,0.388,0.252,0.609,0.252s0.44-0.082,0.609-0.252c0.335-0.335,0.335-0.88,0-1.218l-4.561-4.559    c-0.013-0.012-0.029-0.018-0.044-0.029l3.964-3.963c0.012,0.015,0.018,0.032,0.03,0.044l4.56,4.559    c0.167,0.169,0.389,0.252,0.609,0.252c0.219,0,0.438-0.083,0.607-0.252c0.335-0.335,0.335-0.88,0-1.218l-4.559-4.559    c-0.015-0.012-0.031-0.018-0.044-0.03l4.047-4.049c0.013,0.015,0.016,0.033,0.031,0.047l4.559,4.556    c0.167,0.169,0.389,0.255,0.607,0.255c0.22,0,0.44-0.086,0.607-0.255c0.337-0.335,0.337-0.88,0-1.215l-4.558-4.559    c-0.012-0.012-0.03-0.018-0.044-0.029l2.054-2.054l11.504,11.444L36.098,62.984z"></path></g></g><g xmlns="http://www.w3.org/2000/svg" display="none"><path display="inline" fill="none" d="M67.138,18.21H62.78c-0.346,0.403-0.718,0.778-1.124,1.122c0,4.24,0,11.664,0,14.706h8.794   c7.468,0,12.379-1.938,13.986-10.563l-5.021-5.266H68.5c-0.226,0.028-0.449,0.069-0.683,0.069   C67.583,18.279,67.362,18.238,67.138,18.21z M68.87,21.717c0,1.188-0.962,2.148-2.147,2.148s-2.147-0.96-2.147-2.148   c0-1.184,0.962-2.147,2.147-2.147S68.87,20.534,68.87,21.717z"></path><path display="inline" fill="none" d="M84.987,18.266c0-0.021,0.003-0.038,0.003-0.055h-0.055L84.987,18.266z"></path><g display="inline"><path fill="#da223e" d="M23.872,13.757c2.843,0,5.155-2.313,5.155-5.156s-2.313-5.159-5.155-5.159    c-2.845,0-5.157,2.316-5.157,5.159S21.027,13.757,23.872,13.757z M23.872,5.442c1.741,0,3.157,1.418,3.157,3.159    c0,1.742-1.416,3.156-3.157,3.156c-1.742,0-3.16-1.414-3.16-3.156C20.712,6.86,22.13,5.442,23.872,5.442z"></path><path fill="#da223e" d="M11.196,29.024c2.296,0,4.165-1.869,4.165-4.167c0-2.296-1.869-4.165-4.165-4.165    c-2.296,0-4.165,1.869-4.165,4.165C7.031,27.155,8.899,29.024,11.196,29.024z M11.196,22.691c1.195,0,2.168,0.971,2.168,2.165    c0,1.194-0.973,2.168-2.168,2.168c-1.195,0-2.167-0.974-2.167-2.168C9.029,23.662,10.001,22.691,11.196,22.691z"></path><circle fill="#da223e" cx="66.723" cy="21.718" r="2.148"></circle><path fill="#da223e" d="M87.022,14.215H74.16c0.106-0.472,0.175-0.953,0.175-1.456c0-3.597-2.923-6.522-6.518-6.522    c-0.954,0-1.883,0.21-2.74,0.613c-1.834-3.724-5.668-6.157-9.874-6.157c-2.611,0-5.097,0.912-7.079,2.581    c-1.224-0.792-2.61-1.208-4.058-1.208c-4.174,0-7.571,3.397-7.571,7.572c0,0.829,0.145,1.659,0.423,2.454    c-2.469,0.327-4.724,1.504-6.418,3.362c-1.251-0.85-2.715-1.308-4.212-1.308c-4.177,0-7.573,3.397-7.573,7.571    c0,3.562,2.471,6.557,5.787,7.362c-1.005,1.321-1.576,2.918-1.626,4.612c-0.738-0.272-1.516-0.413-2.311-0.413    c-3.772,0-6.842,3.07-6.842,6.842s3.07,6.842,6.842,6.842c0.603,0,1.198-0.083,1.772-0.238c-0.088,0.578-0.131,1.164-0.131,1.745    c0,1.047,0.15,2.059,0.406,3.028l-1.136,1.917c-1.015-0.599-2.186-0.967-3.449-0.967c-3.772,0-6.839,3.07-6.839,6.842    c0,2.488,1.35,4.649,3.342,5.848l-5.409,9.13c0-9.719,0-27.956,0-30.444c0-3.414-1.65-4.963-3.756-4.963    c-1.955,0-3.685,1.549-3.685,4.963c0,3.414,0,43.778,0,43.778l0.038-0.038c0.028,0.272,0.095,0.54,0.234,0.785    c0.356,0.623,1.019,1.008,1.736,1.008H58.52c1.103,0,1.998-0.895,1.998-1.999V38.034h9.933c10.904,0,16.556-4.605,18.107-15.084    c0.002-0.031,0.012-0.062,0.014-0.097c0.291-2.003,0.449-4.199,0.449-6.642C89.021,15.11,88.126,14.215,87.022,14.215z     M13.185,59.289c0-2.671,2.173-4.842,4.842-4.842c2.671,0,4.844,2.171,4.844,4.842s-2.173,4.843-4.844,4.843    C15.358,64.132,13.185,61.96,13.185,59.289z M56.521,79.633c-1.218-1.105-2.691-1.935-4.372-2.228V56.959    c0-1.101-0.896-1.996-1.998-1.996c-1.104,0-1.998,0.896-1.998,1.996v20.319H38.059c0.628-5.08-1.337-11.103-4.856-14.014    c-0.848-0.702-2.108-0.582-2.813,0.268c-0.702,0.851-0.583,2.11,0.267,2.813c2.862,2.364,4.359,8.445,3.023,12.272    c-0.213,0.612-0.117,1.287,0.258,1.813c0.375,0.531,0.981,0.845,1.628,0.845h15.265c2.332,0,4.133,2.223,5.011,4.085H7.194    l11.429-19.291c3.49-0.307,6.247-3.211,6.247-6.78c0-0.984-0.217-1.913-0.594-2.76l0.459-0.774    c2.167,2.757,5.52,4.536,9.291,4.536c6.518,0,11.82-5.304,11.82-11.822c0-4.928-3.06-9.292-7.582-11.027    c0.533-1.094,0.809-2.285,0.809-3.51c0-0.213-0.008-0.427-0.029-0.644c2.993-0.196,5.646-1.642,7.459-3.81c0,2.286,0,4.25,0,5.235    c0,3.414,3.524,5.513,7.503,5.513c0.892,0,1.728-0.11,2.516-0.286V79.633z M55.203,20.719c-3.512,0-6.728-2.072-8.194-5.276    c-0.21-0.464-0.739-0.695-1.222-0.533l-0.189,0.065c-0.132,0.044-0.261,0.093-0.4,0.12c-0.354,0.072-0.642,0.331-0.752,0.675    c-0.11,0.344-0.026,0.723,0.22,0.988c1.503,1.614,2.333,3.707,2.333,5.896c0,4.773-3.886,8.659-8.659,8.659l-0.436-0.031    c-0.344,0.007-0.616,0.121-0.814,0.361c-0.199,0.244-0.273,0.564-0.199,0.871c0.124,0.516,0.186,0.981,0.186,1.418    c0,1.253-0.389,2.464-1.122,3.503c-0.188,0.269-0.234,0.613-0.12,0.919c0.112,0.306,0.368,0.541,0.685,0.623    c4.316,1.132,7.331,5.035,7.331,9.492c0,5.417-4.409,9.822-9.824,9.822c-5.416,0-9.824-4.405-9.824-9.822    c0-1.063,0.179-2.127,0.53-3.159c0.138-0.406,0.003-0.854-0.336-1.115c-0.181-0.138-0.394-0.207-0.611-0.207    c-0.191,0-0.384,0.055-0.55,0.166c-0.799,0.53-1.721,0.809-2.671,0.809c-2.67,0-4.842-2.171-4.842-4.842s2.172-4.842,4.842-4.842    c1.029,0,2.027,0.337,2.881,0.974c0.337,0.251,0.788,0.268,1.139,0.041s0.523-0.647,0.434-1.053    c-0.1-0.461-0.148-0.888-0.148-1.308c0-1.924,0.9-3.7,2.467-4.873c0.36-0.269,0.423-0.74,0.262-1.157    c-0.164-0.42-0.644-0.664-1.105-0.626c-0.069,0.007-0.138,0.017-0.206,0.017c-3.074,0-5.576-2.502-5.576-5.576    c0-3.073,2.502-5.572,5.576-5.572c1.345,0,2.658,0.509,3.696,1.432c0.207,0.186,0.485,0.275,0.761,0.251    c0.279-0.028,0.532-0.169,0.699-0.393c1.655-2.182,4.161-3.435,6.986-3.435c0.351-0.007,0.709-0.189,0.888-0.506    c0.177-0.313,0.172-0.699-0.014-1.008c-0.539-0.895-0.812-1.855-0.812-2.85c0-3.074,2.502-5.572,5.575-5.572    c1.267,0,2.475,0.438,3.497,1.27c0.396,0.32,0.967,0.296,1.332-0.062c1.696-1.666,3.937-2.581,6.308-2.581    c3.769,0,7.169,2.385,8.463,5.933c0.108,0.296,0.348,0.52,0.647,0.613s0.623,0.038,0.878-0.145    c0.777-0.561,1.686-0.857,2.626-0.857c2.493,0,4.521,2.027,4.521,4.522c0,2.492-2.028,4.519-4.521,4.519    c-1.212,0-2.351-0.472-3.204-1.332c-0.221-0.224-0.535-0.333-0.84-0.286c-0.311,0.042-0.582,0.224-0.737,0.496    C61.433,18.971,58.43,20.719,55.203,20.719z M70.45,34.039h-8.794c0-2.76,0-9.117,0-13.439c0.914-0.665,1.733-1.463,2.414-2.389    h0.187c1.051,0.688,2.274,1.067,3.561,1.067c1.313,0,2.532-0.396,3.557-1.067h8.041l5.021,5.266    C82.829,32.101,77.918,34.039,70.45,34.039z"></path></g></g><g xmlns="http://www.w3.org/2000/svg" display="none"><g display="inline"><path fill="#da223e" d="M70.373,21.502c-1.396,0-2.525,1.132-2.525,2.524c0,1.396,1.129,2.525,2.525,2.525    c1.392,0,2.524-1.129,2.524-2.525C72.897,22.635,71.765,21.502,70.373,21.502z"></path><path fill="#da223e" d="M27.803,12.438c2.896,0,5.255-2.356,5.255-5.253c0-2.896-2.358-5.256-5.255-5.256    c-2.896,0-5.254,2.36-5.254,5.256C22.549,10.082,24.907,12.438,27.803,12.438z M27.803,3.966c1.774,0,3.217,1.445,3.217,3.219    c0,1.774-1.443,3.216-3.217,3.216c-1.774,0-3.217-1.441-3.217-3.216C24.586,5.411,26.029,3.966,27.803,3.966z"></path><path fill="#da223e" d="M23.569,26.345c2.34,0,4.245-1.904,4.245-4.243c0-2.342-1.904-4.247-4.245-4.247    c-2.341,0-4.245,1.904-4.245,4.247C19.325,24.441,21.229,26.345,23.569,26.345z M23.569,19.893c1.217,0,2.208,0.992,2.208,2.209    s-0.991,2.206-2.208,2.206s-2.208-0.989-2.208-2.206S22.353,19.893,23.569,19.893z"></path><path fill="#da223e" d="M87.112,26.047c-0.303-0.529-0.829-0.894-1.431-0.992c-0.787-0.133-1.817-1.739-2.813-3.296    c-1.313-2.048-2.986-4.628-5.644-6.662c0.024-0.239,0.071-0.47,0.071-0.715c0-3.819-3.106-6.926-6.925-6.926    c-1.439,0-2.791,0.463-3.935,1.273l-3.016-6.624c-0.315-0.691-0.99-1.15-1.748-1.189c-0.758-0.045-1.478,0.347-1.862,1.003    l-2.009,3.429c-3.628,0.175-6.842,2.458-8.213,5.807c-0.434-0.137-0.881-0.246-1.338-0.326c0.032-0.228,0.048-0.456,0.048-0.684    c0-2.896-2.357-5.256-5.254-5.256c-2.896,0-5.254,2.36-5.254,5.256c0,1.245,0.433,2.416,1.213,3.345    c-2.239,2.048-3.547,4.962-3.547,8.013c0,1.273,0.221,2.514,0.656,3.699c-3.284,1.129-5.558,4.232-5.558,7.792    c0,0.165,0.007,0.33,0.02,0.498c-2.104-0.204-4.038,0.564-5.434,1.9c-0.293-0.357-0.603-0.698-0.952-1.01    c-3.289-2.928-8.182-3.563-13.432-1.739c-1.99,0.691-3.043,2.868-2.351,4.86c0.691,1.988,2.863,3.047,4.858,2.35    c2.518-0.873,4.702-0.786,5.851,0.235c1.013,0.901,1.317,2.679,0.829,4.874c-0.624,2.823-1.955,5.551-3.494,8.71    c-3.648,7.483-8.168,16.786-6.385,33.467c-0.065,0.441,0.001,0.897,0.231,1.301c0.363,0.631,1.036,1.023,1.766,1.023h55.866    c1.124,0,2.035-0.911,2.035-2.037V40.203c0.025,0,0.05,0,0.076,0c3.75,0,12.937-1.21,17.211-12.417    C87.467,27.214,87.416,26.576,87.112,26.047z M29.937,35.493c0.491,0,1.005,0.091,1.569,0.284    c0.357,0.123,0.749,0.032,1.021-0.221c0.273-0.256,0.386-0.638,0.291-1.003c-0.154-0.589-0.227-1.087-0.227-1.561    c0-3.001,2.146-5.568,5.106-6.105c0.313-0.056,0.583-0.259,0.728-0.547c0.144-0.284,0.144-0.624,0-0.908    c-0.619-1.241-0.931-2.563-0.931-3.931c0-2.805,1.362-5.474,3.647-7.132c0.263-0.189,0.419-0.495,0.42-0.82    c0-0.323-0.154-0.628-0.416-0.821c-0.838-0.621-1.318-1.561-1.318-2.584c0-1.774,1.443-3.219,3.217-3.219s3.217,1.445,3.217,3.219    c0,0.393-0.077,0.789-0.231,1.178c-0.119,0.302-0.087,0.642,0.086,0.919c0.173,0.273,0.468,0.449,0.792,0.47    c1.026,0.07,2.003,0.302,2.9,0.694c0.272,0.116,0.579,0.112,0.843-0.018c0.268-0.126,0.463-0.361,0.543-0.645    c0.883-3.173,3.779-5.39,7.046-5.39c2.731,0,5.221,1.529,6.499,3.99c0.161,0.313,0.472,0.519,0.82,0.547    c0.367,0.021,0.691-0.13,0.899-0.41c0.94-1.263,2.365-1.988,3.912-1.988c2.696,0,4.888,2.191,4.888,4.888    c0,2.693-2.191,4.884-4.888,4.884c-1.431,0-2.793-0.645-3.734-1.778c-0.225-0.267-0.572-0.407-0.919-0.354    c-0.348,0.045-0.646,0.267-0.791,0.585c-1.192,2.633-3.816,4.331-6.687,4.331c-0.577,0-1.182-0.087-1.908-0.284    c-0.287-0.077-0.587-0.028-0.832,0.137c-0.244,0.165-0.405,0.428-0.442,0.719c-0.554,4.39-4.313,7.704-8.743,7.704    c-0.09,0-0.179-0.007-0.428-0.024c-0.344,0-0.633,0.119-0.836,0.365c-0.207,0.245-0.284,0.575-0.21,0.887    c0.126,0.529,0.186,0.999,0.186,1.441c0,1.273-0.395,2.511-1.142,3.57c-0.191,0.273-0.238,0.624-0.123,0.936    c0.114,0.312,0.375,0.551,0.698,0.635c4.397,1.154,7.467,5.13,7.467,9.671c0,5.52-4.489,10.008-10.006,10.008    c-1.638,0-3.265-0.407-4.706-1.175c-0.286-0.154-0.631-0.161-0.92-0.021c-0.293,0.144-0.501,0.413-0.559,0.736    c-0.428,2.342-2.465,4.039-4.843,4.039c-2.721,0-4.934-2.213-4.934-4.93c0-2.718,2.204-4.927,4.984-4.927c0.007,0,0.012,0,0.02,0    c0.022,0.003,0.191,0.024,0.214,0.024c0.326,0.018,0.645-0.109,0.855-0.361c0.208-0.253,0.286-0.589,0.204-0.908    c-0.216-0.838-0.325-1.676-0.325-2.486c0-0.477,0.046-0.937,0.109-1.396c0.045-0.322-0.068-0.648-0.305-0.876    c-0.237-0.225-0.57-0.319-0.889-0.263c-0.29,0.053-0.584,0.091-0.889,0.091c-2.719,0-4.932-2.213-4.932-4.934    C25.005,37.706,27.218,35.493,29.937,35.493z M27.325,46.876c0.792,0.322,1.653,0.512,2.558,0.519    c-0.005,0.137-0.009,0.273-0.009,0.41c0,0.575,0.045,1.157,0.135,1.743c-1.695,0.214-3.201,1.045-4.292,2.255    C26.373,50.214,26.927,48.59,27.325,46.876z M23.31,57.017c0.237-0.487,0.463-0.961,0.694-1.441    c-0.037,0.291-0.082,0.582-0.082,0.888c0,1.588,0.556,3.04,1.457,4.215l-7.67,13.086C18.643,66.674,21.064,61.624,23.31,57.017z     M70.038,36.131c-1.064,0-1.741-0.115-1.741-0.115c-0.593-0.112-1.206,0.049-1.673,0.438c-0.465,0.386-0.732,0.958-0.732,1.564    v41.539c-1.241-1.126-2.744-1.971-4.457-2.269V56.455c0-1.122-0.912-2.033-2.035-2.033c-1.124,0-2.036,0.911-2.036,2.033v20.703    H47.08c0.639-5.176-1.361-11.313-4.947-14.279c-0.872-0.719-2.151-0.596-2.867,0.274c-0.715,0.865-0.594,2.149,0.272,2.864    c2.914,2.409,4.441,8.605,3.081,12.504c-0.218,0.625-0.12,1.312,0.261,1.849c0.382,0.54,1.001,0.858,1.66,0.858h15.553    c2.376,0,4.214,2.266,5.107,4.163H15.613l13.095-22.348c0.691,0.231,1.417,0.386,2.185,0.386c2.923,0,5.481-1.816,6.496-4.467    c1.434,0.582,2.979,0.887,4.532,0.887c6.639,0,12.043-5.403,12.043-12.045c0-5.021-3.119-9.467-7.727-11.235    c0.542-1.115,0.825-2.332,0.825-3.577c0-0.217-0.01-0.435-0.031-0.656c4.769-0.315,8.777-3.745,9.852-8.366    c0.472,0.077,0.917,0.116,1.357,0.116c3.192,0,6.146-1.645,7.863-4.285c1.213,0.964,2.709,1.501,4.268,1.501    c2.046,0,3.867-0.908,5.137-2.322c1.643,1.477,2.839,3.265,3.933,4.973c1.012,1.581,1.988,3.106,3.267,4.088    C79.281,35.034,73.394,36.131,70.038,36.131z"></path></g></g><g xmlns="http://www.w3.org/2000/svg" display="none"><g display="inline"><path fill="#da223e" d="M78.131,48.638c0.408-1.492,0.367-3.851-0.366-5.422c-0.81-1.736-2.41-2.352-4.264-1.578    c-1.639,0.688-2.268,3.953-2.498,5.85c-7.184,2.335-16.123,3.643-25.328,3.709c-0.543-1.657-1.948-3.887-4.585-3.887    c-2.563,0-4.488,1.189-5.146,3.178c-0.547,1.647-0.072,3.509,1.183,4.928c-1.294,1.153-1.95,2.994-1.568,4.733    c0.366,1.674,1.844,3.462,4.899,3.462c2.94,0,4.557-2.361,5.189-4.074c10.603-0.072,20.649-1.727,28.449-4.681    c0.659,0.685,1.927,1.742,3.488,1.742c0.527,0,1.044-0.118,1.535-0.355c1.385-0.665,2.078-1.881,1.903-3.333    C80.82,51.217,79.46,49.468,78.131,48.638z M78.29,54.521c-1.268,0.603-2.753-0.844-3.141-1.367    c-0.257-0.346-0.718-0.48-1.121-0.322c-7.839,3.093-18.171,4.796-29.088,4.796c-0.441,0-0.827,0.306-0.931,0.734    c-0.033,0.138-0.835,3.336-3.552,3.336c-1.68,0-2.757-0.694-3.032-1.953c-0.254-1.156,0.292-2.717,1.639-3.336    c0.308-0.142,0.517-0.432,0.552-0.768c0.036-0.336-0.109-0.666-0.379-0.866c-1.294-0.969-1.891-2.447-1.479-3.683    c0.394-1.189,1.607-1.867,3.332-1.867c2.271,0,2.887,2.987,2.912,3.112c0.087,0.451,0.482,0.777,0.938,0.777    c9.916,0,19.594-1.423,27.252-4.005c0.357-0.119,0.61-0.439,0.646-0.814c0.216-2.263,0.897-4.638,1.401-4.891    c0.301-0.125,0.568-0.188,0.792-0.188c0.267,0,0.616,0.076,0.938,0.682c0.782,1.476,0.481,4.176,0.188,4.615    c-0.218,0.257-0.282,0.608-0.172,0.925c0.108,0.316,0.377,0.554,0.705,0.623c0.777,0.164,2.272,1.746,2.434,3.076    C79.201,53.779,78.944,54.204,78.29,54.521z"></path><path fill="#da223e" d="M78.285,23.908c-0.013-0.013-0.029-0.017-0.044-0.033c-5.035-5.919-17.677-9.921-33.301-9.921    c-15.626,0-28.268,4.002-33.302,9.924c-0.013,0.013-0.031,0.017-0.043,0.03C7.242,28.565,0.572,42.027,0.572,49.823    c0,10.827,19.489,19.309,44.369,19.309s44.368-8.481,44.368-19.309C89.309,42.027,82.64,28.565,78.285,23.908z M44.94,17.778    c18.77,0,31.853,6.281,31.853,11.92c0,0.975-0.416,1.966-1.159,2.944c-2.248-6.126-15.112-10.83-30.693-10.83    c-15.582,0-28.446,4.704-30.695,10.83c-0.743-0.978-1.158-1.97-1.158-2.944C13.087,24.059,26.169,17.778,44.94,17.778z     M42.09,32.504l-3.143-0.316l0.316-3.143l3.142,0.319L42.09,32.504z M43.62,34.398v1.762h-1.764v-1.762H43.62z M40.443,26.49    l-2.319-0.234l0.234-2.319l2.319,0.234L40.443,26.49z M38.358,38.796l2.319,0.233l-0.234,2.319l-2.319-0.234L38.358,38.796z     M38.124,35.897h-1.766v-1.762h1.766V35.897z M56.622,28.921h-1.763v-1.762h1.763V28.921z M56.855,30.775l2.321,0.234    l-0.232,2.319l-2.322-0.234L56.855,30.775z M55.741,37.755l-0.232,2.319l-2.322-0.234l0.234-2.319L55.741,37.755z M58.803,38.331    l1.536-3.162l3.164,1.539l-1.423,2.928c-0.13,0.033-0.261,0.066-0.393,0.099L58.803,38.331z M59.876,27.185l0.234-2.319    l2.318,0.234l-0.233,2.319L59.876,27.185z M64.768,30.584v-1.765h1.763v1.765H64.768z M67.867,34.329l1.536-3.162l3.164,1.539    l-1.536,3.162L67.867,34.329z M45.143,39.263l1.537-3.162l3.164,1.538l-1.537,3.162L45.143,39.263z M52.162,35.018l-2.318-0.234    l0.233-2.319l2.319,0.234L52.162,35.018z M52.001,25.703h-1.763v-1.766h1.763V25.703z M50.573,28.394l-1.537,3.162l-3.162-1.535    l1.535-3.162L50.573,28.394z M46.188,25.215l-2.319-0.234l0.234-2.319l2.319,0.234L46.188,25.215z M35.604,26.49l-2.32-0.234    l0.234-2.319l2.32,0.234L35.604,26.49z M33.565,29.276l-0.234,2.319l-2.321-0.234l0.234-2.319L33.565,29.276z M33.565,37.64    l-1.423,2.928c-0.339-0.056-0.654-0.128-0.985-0.191l-2.292-1.114l1.536-3.162L33.565,37.64z M28.022,28.756l-2.554-1.242    l1.24-2.553l2.554,1.239L28.022,28.756z M26.541,31.236l-1.536,3.162l-3.163-1.535l1.536-3.162L26.541,31.236z M21.609,30.979    l-2.32-0.234l0.234-2.319l2.319,0.234L21.609,30.979z M19.616,33.516v1.766h-1.764v-1.766H19.616z M23.148,35.9l2.32,0.234    l-0.233,2.319l-1.972-0.201c-0.113-0.039-0.227-0.082-0.34-0.125L23.148,35.9z M44.94,65.308    c-24.252,0-40.544-8.007-40.544-15.484c0-4.437,2.716-11.406,5.645-16.798c3.372,7.181,17.489,12.424,34.9,12.424    s31.528-5.244,34.899-12.424c2.929,5.392,5.645,12.362,5.645,16.798C85.484,57.301,69.193,65.308,44.94,65.308z"></path></g></g><g xmlns="http://www.w3.org/2000/svg" display="none"><g display="inline"><path fill="#da223e" d="M68.51,46.264c-7.963,0-18.318,3.604-23.531,6.308c-1.316-0.82-5.113-3.172-7.683-4.632    c-0.377-0.213-0.845-0.147-1.149,0.158c-0.305,0.304-0.368,0.775-0.153,1.15l3.874,6.779l-4.076,6.576    c-0.217,0.354-0.185,0.805,0.084,1.121c0.185,0.221,0.455,0.338,0.729,0.338c0.122,0,0.244-0.021,0.361-0.068    c2.726-1.113,6.861-4.529,8.188-5.658c3.412,1.096,8.222,1.768,12.728,1.768c6.375,0,17.442-1.316,19.931-10.138    c0.098-0.346-0.007-0.715-0.267-0.958C75.6,47.186,72.562,46.264,68.51,46.264z M57.881,58.193    c-5.432,0-10.083-0.951-12.624-1.838c-0.328-0.115-0.685-0.043-0.947,0.182c-0.035,0.033-2.434,2.127-4.883,3.828l2.365-3.814    c0.185-0.301,0.191-0.676,0.017-0.979l-2.374-4.154c2.523,1.516,4.964,3.045,4.999,3.066c0.293,0.182,0.659,0.195,0.963,0.031    c4.848-2.633,15.224-6.338,23.113-6.338c3.231,0,5.676,0.619,7.277,1.844C73.192,57.383,62.461,58.193,57.881,58.193z"></path><path fill="#da223e" d="M78.287,23.908c-0.013-0.013-0.031-0.017-0.046-0.033c-5.034-5.919-17.676-9.921-33.3-9.921    s-28.266,4.002-33.302,9.921c-0.013,0.017-0.031,0.02-0.044,0.033C7.241,28.568,0.571,42.031,0.571,49.824    c0,10.826,19.49,19.309,44.37,19.309c24.879,0,44.368-8.482,44.368-19.309C89.309,42.031,82.641,28.565,78.287,23.908z     M44.941,17.778c18.771,0,31.853,6.281,31.853,11.92c0,0.975-0.415,1.97-1.158,2.944c-2.248-6.126-15.113-10.83-30.695-10.83    s-28.446,4.701-30.695,10.83c-0.743-0.978-1.158-1.97-1.158-2.944C13.088,24.059,26.169,17.778,44.941,17.778z M42.09,32.504    l-3.142-0.316l0.316-3.143l3.143,0.319L42.09,32.504z M43.62,34.398v1.762h-1.764v-1.762H43.62z M40.445,26.49l-2.322-0.234    l0.234-2.319l2.32,0.234L40.445,26.49z M38.356,38.796l2.32,0.233l-0.232,2.319l-2.322-0.234L38.356,38.796z M38.123,35.897H36.36    v-1.762h1.762V35.897z M56.624,28.921h-1.766v-1.762h1.766V28.921z M56.857,30.775l2.319,0.234l-0.233,2.319l-2.319-0.234    L56.857,30.775z M55.741,37.755l-0.233,2.319l-2.319-0.234l0.234-2.319L55.741,37.755z M58.805,38.331l1.535-3.162l3.162,1.539    l-1.422,2.928c-0.13,0.033-0.26,0.066-0.392,0.099L58.805,38.331z M59.875,27.185l0.234-2.319l2.32,0.234l-0.232,2.319    L59.875,27.185z M64.767,30.584v-1.765h1.766v1.765H64.767z M67.869,34.329l1.535-3.162l3.162,1.539l-1.535,3.162L67.869,34.329z     M45.145,39.263l1.535-3.162l3.162,1.538l-1.535,3.162L45.145,39.263z M52.164,35.018l-2.322-0.234l0.234-2.319l2.32,0.234    L52.164,35.018z M52.003,25.703h-1.766v-1.766h1.766V25.703z M50.573,28.394l-1.535,3.162l-3.164-1.535l1.537-3.162L50.573,28.394    z M46.189,25.215l-2.322-0.234l0.234-2.319l2.321,0.234L46.189,25.215z M35.604,26.49l-2.32-0.234l0.233-2.319l2.319,0.234    L35.604,26.49z M33.564,29.276l-0.232,2.319l-2.32-0.234l0.234-2.319L33.564,29.276z M33.564,37.64l-1.423,2.928    c-0.336-0.056-0.654-0.128-0.983-0.191l-2.291-1.114l1.535-3.162L33.564,37.64z M28.024,28.756l-2.556-1.242l1.242-2.553    l2.553,1.239L28.024,28.756z M26.542,31.236l-1.535,3.162l-3.164-1.535l1.537-3.162L26.542,31.236z M21.611,30.979l-2.322-0.234    l0.234-2.319l2.32,0.234L21.611,30.979z M19.616,33.516v1.766h-1.764v-1.766H19.616z M23.149,35.9l2.319,0.234l-0.232,2.319    l-1.971-0.201c-0.114-0.039-0.228-0.082-0.339-0.125L23.149,35.9z M44.941,65.309c-24.252,0-40.545-8.008-40.545-15.484    c0-4.434,2.717-11.407,5.646-16.799c3.371,7.181,17.489,12.425,34.9,12.425c17.411,0,31.529-5.245,34.9-12.425    c2.928,5.392,5.644,12.366,5.644,16.799C85.484,57.301,69.193,65.309,44.941,65.309z"></path><path fill="#da223e" d="M70.964,52.602c0.718,0,1.301-0.584,1.301-1.302c0-0.715-0.583-1.298-1.301-1.298    c-0.715,0-1.298,0.583-1.298,1.298C69.666,52.018,70.249,52.602,70.964,52.602z"></path></g></g><g xmlns="http://www.w3.org/2000/svg"><g><circle fill="#da223e" cx="50.852" cy="11.316" r="2.249"></circle><path fill="#da223e" d="M83.025,77.687c-0.672-1.814-1.941-3.174-3.666-3.938c-1.059-0.465-2.295-0.703-3.674-0.703    c-1.703,0-3.607,0.374-5.219,1.027l-1.027,0.405c-0.221,0.086-0.441,0.174-0.662,0.259c-0.252-1.97-0.492-4.346-0.742-6.843    c-1.303-12.98-3.305-32.842-12.154-40.692c0.4-1.231,0.795-2.659,1.084-4.518l4.877,2.248c0.51,0.236,1.104,0.193,1.578-0.108    c0.474-0.303,0.76-0.826,0.76-1.388c0-12.511-10.178-22.688-22.688-22.688S18.804,10.925,18.804,23.436    c0,0.522,0.249,1.016,0.671,1.326c0.287,0.213,0.63,0.32,0.977,0.32c0.164,0,0.329-0.022,0.489-0.074l5.236-1.629    c0.252,1.535,0.571,2.753,0.905,3.797c-0.895,1.149-1.735,2.574-2.562,4.323c-2.039,4.311-3.208,9.979-3.208,15.544    c0,1.422,0.082,2.742,0.232,3.965c-0.058,0.023-0.124,0.037-0.18,0.063c-1.735,0.789-2.731,2.285-2.731,4.104    c0,4.2,4.514,18.673,5.065,20.004c0.784,1.896,3.205,2.523,4.978,2.73c0.002,0.789,0.003,1.53,0.003,2.205    c-0.001,0.236,0.047,1.462,1.086,2.504c0.871,0.874,2.124,1.319,3.722,1.319c1.668,0,2.945-0.466,3.797-1.379    c0.885-0.951,0.963-2.029,0.957-2.433c0.023-0.661,0.047-1.371,0.074-2.111h7.608c0.039,0.743,0.075,1.453,0.109,2.12    c-0.007,0.423,0.077,1.419,0.899,2.324c0.891,0.982,2.295,1.479,4.174,1.479c1.91,0,3.337-0.502,4.238-1.49    c0.86-0.942,0.916-1.98,0.903-2.364c0-0.652-0.007-1.367-0.019-2.123c1.742-0.133,4.115-0.584,5.041-2.04    c0.463-0.732,1.182-3.698,1.875-7.218c0.316,3.134,0.597,5.887,0.918,8.032c-4.381,2.049-6.625,3.894-7.25,5.938    c-0.363,1.192-0.168,2.421,0.55,3.457c2.035,2.94,7.481,3.258,9.728,3.258c0.439,0,0.725-0.011,0.777-0.014    c1.359-0.068,2.416-1.227,2.352-2.589c-0.063-1.316-1.145-2.35-2.584-2.35c-0.002,0-0.002,0-0.006,0    c-0.25,0.011-0.516,0.02-0.791,0.02c-2.256,0-4.678-0.366-5.998-0.715c0.794-0.412,1.998-0.971,3.248-1.547l1.279-0.597    c1.32,2.305,4.254,3.613,8.148,3.613c2.039,0,4.158-0.395,5.816-1.081C83.225,82.514,83.756,79.65,83.025,77.687z M32.757,9.685    c0.901,0,1.631,0.729,1.631,1.632c0,0.9-0.73,1.629-1.631,1.629c-0.9,0-1.631-0.729-1.631-1.629    C31.126,10.415,31.857,9.685,32.757,9.685z M39.057,4.213c0.799-0.102,1.608-0.17,2.435-0.17c9.792,0,17.912,7.294,19.21,16.737    l-3.37-1.555c0.059-0.976,0.096-2.038,0.096-3.213c0-0.908-0.738-1.646-1.648-1.646c-0.909,0-1.646,0.738-1.646,1.646    c0,4.431-0.495,7.138-1.097,9.23c-0.954-0.488-1.976-0.852-3.062-1.09c0.252-0.392,0.354-0.874,0.209-1.357    c-0.264-0.868-1.182-1.356-2.055-1.101c-0.037,0.011-3.843,1.059-4.878-0.84c-0.091-0.167-0.216-0.307-0.354-0.429    c0.076-0.071,0.15-0.145,0.213-0.227l2.477-3.326c0.373-0.5,0.431-1.167,0.151-1.723c-0.28-0.556-0.85-0.908-1.473-0.908h-5.042    c-0.628,0-1.201,0.358-1.479,0.919c-0.277,0.565-0.209,1.238,0.174,1.734l2.565,3.326c0.061,0.08,0.133,0.145,0.207,0.21    c-0.106,0.099-0.202,0.21-0.282,0.337c-1.205,1.927-4.908,0.931-4.939,0.922c-0.874-0.255-1.79,0.244-2.045,1.116    c-0.059,0.199-0.067,0.4-0.052,0.596c-1.325,0.176-2.504,0.574-3.576,1.243c-0.385-1.578-0.693-3.573-0.799-6.411    C33.889,17.374,41.188,13.741,39.057,4.213z M44.984,25.244c-0.037,0.11-0.11,0.275-0.265,0.437    c-0.485,0.511-1.52,0.792-2.914,0.792c-2.2,0-2.9-0.752-3.118-1.294c1.073-0.136,2.147-0.462,3.064-1.118    C42.694,24.778,43.837,25.122,44.984,25.244z M26.745,73.92c-0.535-1.292-4.815-15.248-4.815-18.744    c0-0.256,0.061-0.517,0.295-0.758c1.092,3.752,3.115,5.912,5.808,5.912c0.207,0,0.391-0.028,0.582-0.052    c0.009,3.423,0.022,6.813,0.035,9.912c0.006,1.538,0.013,3.009,0.018,4.385C27.719,74.422,26.922,74.167,26.745,73.92z     M28.032,58.681c-3.081,0-5.072-4.566-5.072-11.637c0-5.33,1.112-10.739,3.05-14.841c2.416-5.108,4.77-7.124,8.571-7.257h0    c-4.182,2.027-6.796,7.357-7.082,7.961c-1.811,3.832-2.891,9.116-2.891,14.137c0,5.239,1.309,10.896,3.423,10.896    c1.256,0,2.163-1.008,2.403-14.188c0.013-0.729,0.003-1.536-0.009-2.39c-0.058-4.348-0.135-10.062,3.022-13.45    c-1.31,2.509-1.325,7.43-1.34,12.553c-0.003,1.132-0.007,2.25-0.026,3.315C31.914,53.019,31.629,58.681,28.032,58.681z     M26.473,50.672c-0.13-1.079-0.216-2.279-0.216-3.628c0-4.686,0.982-9.584,2.628-13.186c0.017,0.465,0.014,0.971-0.021,1.541    c-0.16,2.648-0.228,7.874-0.249,13.939c-0.033,0.697-0.069,1.331-0.107,1.901C27.86,50.978,27.171,50.799,26.473,50.672z     M28.158,54.735c-0.089,0.576-0.18,0.974-0.265,1.24c-0.207-0.34-0.455-0.931-0.694-1.708C27.543,54.4,27.87,54.554,28.158,54.735    z M51.107,80.644c-1.286,0-1.76-0.329-1.785-0.363c0.008-0.079,0.011-0.162,0.006-0.241c-0.058-1.149-1.437-28.192-1.975-31.658    c-0.141-0.899-0.989-1.526-1.882-1.374c-0.899,0.14-1.515,0.982-1.375,1.882c0.343,2.2,1.121,15.77,1.656,25.831h-7.317    c0.362-10.011,0.886-23.455,1.104-25.419c0.101-0.902-0.551-1.718-1.456-1.819c-0.897-0.105-1.719,0.551-1.819,1.456    c-0.34,3.067-1.276,29.983-1.315,31.215c-0.021,0.29-0.621,0.491-1.459,0.491c-0.891,0-1.472-0.228-1.513-0.522    c0-2.583-0.014-6.057-0.031-9.945c-0.016-3.783-0.033-7.992-0.04-12.171c1.608-2.863,1.713-8.097,1.824-14.193    c0.019-1.073,0.022-2.2,0.026-3.341c0.016-5.33,0.038-12.627,2.226-12.627c0.179,0,0.344-0.042,0.49-0.116    c0.061,0.071,0.098,0.142,0.164,0.213c1.159,1.212,2.898,1.828,5.168,1.828c2.373,0,4.156-0.61,5.302-1.816    c0.087-0.091,0.157-0.185,0.232-0.278c1.642,0.014,3.099,0.537,4.403,1.451c-0.564,1.743-0.98,3.633-0.809,6.474    c0.754,12.451,2.02,34.791,1.978,44.632C52.848,80.297,52.465,80.644,51.107,80.644z M54.223,35.399    c-0.088-1.464,0.002-2.58,0.206-3.587c3.093,4.184,5.03,11.052,6.34,18.298c-1.816-0.341-3.888-0.097-5.659,0.718    C54.801,45.125,54.482,39.676,54.223,35.399z M58.494,74.118c-0.338,0.222-1.293,0.429-2.334,0.534    c-0.15-5.646-0.48-12.918-0.854-20.118c0.021-0.015,0.045-0.017,0.065-0.034c1.451-1.223,4.079-1.663,5.623-0.942    c0.162,0.074,0.279,0.159,0.389,0.241c0.135,0.892,0.262,1.78,0.383,2.668C61.288,61.502,59.182,72.367,58.494,74.118z     M63.398,80.697c-3.955,1.828-4.797,2.242-4.96,3.015c-0.05,0.235,0.006,0.479,0.153,0.672c0.996,1.295,6.473,1.718,8.248,1.718    c0.307,0,0.598-0.006,0.91-0.023c0.441,0,0.805,0.347,0.824,0.787c0.021,0.454-0.33,0.84-0.787,0.862    c-0.051,0.003-0.303,0.012-0.695,0.012c-1.549,0-6.737-0.182-8.372-2.546c-0.432-0.625-0.545-1.328-0.328-2.041    c0.448-1.47,2.435-3.031,6.019-4.748l0.393,1.641L63.398,80.697z M78.703,82.607c-1.465,0.607-3.355,0.954-5.186,0.954    c-3.416,0.002-5.988-1.155-6.879-3.094c-0.031-0.068-0.063-0.143-0.092-0.219l-0.762-3.179c-0.363-2.231-0.668-5.271-1.029-8.847    c-1.549-15.421-4.123-40.973-16.592-42.145c0.053-0.193,0.088-0.372,0.109-0.525c13.979,1.345,16.564,27,18.123,42.514    c0.299,2.966,0.58,5.765,0.893,7.944c0,0.003,0.002,0.003,0.002,0.006c0,0.002,0,0.002,0,0.005l0.676,4.261    c0.02,0.113,0.063,0.216,0.121,0.307c0.016,0.054,0.023,0.11,0.047,0.158c0.484,1.057,1.941,1.59,4.328,1.59l0,0    c2.236,0,4.955-0.502,6.76-1.252c0.875-0.363,2.281-1.135,1.867-2.253c-0.365-0.985-0.99-1.663-1.908-2.069    c-0.467-0.207-1.035-0.307-1.734-0.307c-2.516,0-5.861,1.34-5.996,1.394l-1.059,0.417c-0.346,0.137-0.623,0.202-0.889,0.265    c-0.047,0.011-0.094,0.022-0.141,0.033l-0.342-2.148c0.34-0.136,0.678-0.27,1.02-0.405l1.035-0.409    c2.527-1.021,5.662-1.209,7.619-0.346c1.309,0.579,2.271,1.617,2.787,3.003C82.125,79.993,81.086,81.617,78.703,82.607z     M69.732,80.17c0.049-0.012,0.098-0.023,0.148-0.034c0.334-0.08,0.68-0.162,1.115-0.332l1.066-0.423    c1.092-0.44,3.623-1.274,5.385-1.274c0.572,0,0.896,0.091,1.068,0.164c0.414,0.185,0.697,0.443,0.902,0.843    c-0.176,0.128-0.473,0.304-0.826,0.449c-1.625,0.675-4.09,1.129-6.129,1.129l0,0C70.754,80.691,69.99,80.374,69.732,80.17z"></path></g></g></g><g id="SvgjsG1014" featureKey="text1" fill="#da223e" transform="matrix(4.065283369208019,0,0,4.065283369208019,-5.691398073825945,108.37980799252382)"><path d="M8.56 10.46 l0 13.1 c0 0.6 -2.3 0.6 -2.3 0 l0 -5.36 l-2.58 0 l0 5.36 c0 0.6 -2.28 0.6 -2.28 0 l0 -13.1 c0 -0.6 2.28 -0.6 2.28 0 l0 5.48 l2.58 0 l0 -5.48 c0 -0.6 2.3 -0.6 2.3 0 z M16.46 10.42 l2.08 12.7 c0.16 1 -2.1 1.1 -2.22 0.38 l-0.4 -2.4 l-2.34 0 l-0.4 2.4 c-0.1 0.6 -2.38 0.62 -2.22 -0.38 l2.1 -12.7 c0.1 -0.6 3.32 -0.54 3.4 0 z M15.540000000000001 18.84 l-0.78 -4.78 l-0.8 4.78 l1.58 0 z M28.439999999999998 22.86 c0.42 1 -1.82 1.48 -2.08 0.88 l-0.12 -0.28 c-0.66 -1.58 -1.38 -3.38 -2.04 -4.98 l-0.98 0 l0 5.08 c0 0.6 -2.28 0.6 -2.28 0 l0 -12.3 c0 -0.94 0.02 -1.24 1.42 -1.26 l2.06 0 c0.72 0 1.52 0.02 2.14 0.42 c1.36 0.86 1.78 2.38 1.76 3.92 c-0.02 1.28 -0.2 2.56 -1.46 3.5 c-0.14 0.08 -0.26 0.16 -0.38 0.24 c0.64 1.52 1.34 3.26 1.96 4.78 z M23.22 16.2 l1.72 0 c0.92 0 1.06 -1.12 1.1 -1.44 c0.02 -0.22 0.02 -1.02 -0.02 -1.4 c-0.08 -0.74 -0.36 -1.12 -1.28 -1.12 l-1.52 0 l0 3.96 z M38.8 22.86 c0.42 1 -1.82 1.48 -2.08 0.88 l-0.12 -0.28 c-0.66 -1.58 -1.38 -3.38 -2.04 -4.98 l-0.98 0 l0 5.08 c0 0.6 -2.28 0.6 -2.28 0 l0 -12.3 c0 -0.94 0.02 -1.24 1.42 -1.26 l2.06 0 c0.72 0 1.52 0.02 2.14 0.42 c1.36 0.86 1.78 2.38 1.76 3.92 c-0.02 1.28 -0.2 2.56 -1.46 3.5 c-0.14 0.08 -0.26 0.16 -0.38 0.24 c0.64 1.52 1.34 3.26 1.96 4.78 z M33.58 16.2 l1.72 0 c0.92 0 1.06 -1.12 1.1 -1.44 c0.02 -0.22 0.02 -1.02 -0.02 -1.4 c-0.08 -0.74 -0.36 -1.12 -1.28 -1.12 l-1.52 0 l0 3.96 z M41.66 23.56 l0 -13.14 c0 -0.6 2.28 -0.6 2.28 0 l0 13.14 c0 0.6 -2.28 0.6 -2.28 0 z M53.04 20.42 c0.04 0.68 -0.14 1.44 -0.52 2 c-0.18 0.26 -0.38 0.52 -0.64 0.74 c-0.16 0.12 -0.32 0.26 -0.5 0.36 s-0.38 0.18 -0.56 0.26 c-0.6 0.26 -1.32 0.28 -1.94 0.12 c-0.32 -0.08 -0.62 -0.2 -0.9 -0.38 c-0.26 -0.16 -0.54 -0.36 -0.74 -0.6 c-0.22 -0.24 -0.42 -0.5 -0.56 -0.8 c-0.08 -0.18 -0.18 -0.38 -0.24 -0.58 c-0.04 -0.2 -0.1 -0.72 -0.1 -0.92 c0 -0.6 2.24 -0.6 2.24 0 c0 0.5 0.78 1.84 1.98 0.64 c0.5 -0.72 0.04 -1.54 -0.4 -2.14 c-0.68 -0.84 -1.56 -1.48 -2.28 -2.28 c-0.42 -0.46 -0.84 -0.98 -1.1 -1.56 c-0.14 -0.32 -0.26 -0.64 -0.34 -1 c-0.3 -1.66 0.22 -4.62 3.84 -4.28 c1.82 0.18 2.62 1.74 2.62 2.8 c0 0.6 -2.28 0.6 -2.28 0 c0 -0.8 -2.26 -0.9 -1.98 0.86 c0.04 0.18 0.08 0.36 0.16 0.54 c0.12 0.26 0.26 0.48 0.42 0.7 c0.2 0.26 0.4 0.48 0.64 0.7 c0.88 0.86 1.88 1.64 2.52 2.74 c0.38 0.64 0.6 1.34 0.66 2.08 z M61.98 12.82 c0.06 0.22 0.02 8.34 -0.06 8.64 c-0.36 1.54 -1.44 2.54 -3.14 2.54 l-0.52 0 c-1.68 0 -2.76 -1 -3.14 -2.54 c-0.08 -0.3 -0.1 -8.42 -0.06 -8.64 c0.28 -1.68 1.32 -2.78 3.2 -2.82 l0.52 0 c1.9 0.04 2.92 1.14 3.2 2.82 z M57.96 21.6 c0.34 0.18 0.78 0.18 1.12 0 c0.58 -0.28 0.68 -0.98 0.7 -1.46 l0 -6.26 c0 -0.48 -0.12 -1.18 -0.7 -1.46 c-0.34 -0.18 -0.78 -0.18 -1.12 0 c-0.58 0.28 -0.7 0.98 -0.7 1.46 l0 6.26 c0.02 0.48 0.12 1.18 0.7 1.46 z M69.54 17.6 l0 -7.18 c0 -0.6 2.2 -0.6 2.2 0 l0 12.74 c0 1 -1.92 1.02 -2.12 0.52 l-3 -7.36 l0 7.24 c0 0.6 -2.22 0.6 -2.22 0 l0 -12.5 c0 -1.56 1.9 -1.08 2.2 -0.48 z  M88.34 16.98 l1.12 -6.56 c0.1 -0.62 2.44 -0.6 2.26 0.4 l-2.16 12.52 c-0.2 1 -2.14 0.7 -2.26 0.1 l-1.36 -6.96 l-1.38 6.96 c-0.1 0.6 -2.08 0.9 -2.26 -0.1 l-2.16 -12.52 c-0.18 -1 2.16 -1.02 2.26 -0.4 l1.12 6.56 l1.26 -6.54 c0.2 -0.6 2.1 -0.6 2.3 0 z M99.22 10.42 l2.08 12.7 c0.16 1 -2.1 1.1 -2.22 0.38 l-0.4 -2.4 l-2.34 0 l-0.4 2.4 c-0.1 0.6 -2.38 0.62 -2.22 -0.38 l2.1 -12.7 c0.1 -0.6 3.32 -0.54 3.4 0 z M98.3 18.84 l-0.78 -4.78 l-0.8 4.78 l1.58 0 z M105.98 21.740000000000002 l2.88 0 c0.4 0 0.4 2.26 0 2.26 l-4.02 0 c-1.14 0 -1.14 0 -1.14 -1.1 l0 -12.44 c0 -0.4 2.28 -0.4 2.28 0 l0 11.28 z M115.3 17.02 l3.14 5.78 c0.44 0.8 -1.78 1.54 -2.04 1.04 l-2.56 -4.66 l0 4.38 c0 0.6 -2.28 0.6 -2.28 0 l0 -13.1 c0 -0.6 2.28 -0.6 2.28 0 l0 4.38 l2.56 -4.68 c0.26 -0.46 2.48 0.22 2.04 1.04 z M123.18 21.72 l2.86 0 c0.6 0 0.6 2.28 0 2.28 l-3.86 0 c-1.28 0 -1.28 0 -1.28 -1.08 l0 -11.84 c0 -1.08 0 -1.08 1.22 -1.1 l3.9 0.02 c0.6 0 0.6 2.28 0 2.28 l-2.84 0 l0 3.64 l2 0 c0.6 0 0.6 2.3 0 2.3 l-2 0 l0 3.5 z M136.8 22.86 c0.42 1 -1.82 1.48 -2.08 0.88 l-0.12 -0.28 c-0.66 -1.58 -1.38 -3.38 -2.04 -4.98 l-0.98 0 l0 5.08 c0 0.6 -2.28 0.6 -2.28 0 l0 -12.3 c0 -0.94 0.02 -1.24 1.42 -1.26 l2.06 0 c0.72 0 1.52 0.02 2.14 0.42 c1.36 0.86 1.78 2.38 1.76 3.92 c-0.02 1.28 -0.2 2.56 -1.46 3.5 c-0.14 0.08 -0.26 0.16 -0.38 0.24 c0.64 1.52 1.34 3.26 1.96 4.78 z M131.58 16.2 l1.72 0 c0.92 0 1.06 -1.12 1.1 -1.44 c0.02 -0.22 0.02 -1.02 -0.02 -1.4 c-0.08 -0.74 -0.36 -1.12 -1.28 -1.12 l-1.52 0 l0 3.96 z M145.95999999999998 20.42 c0.04 0.68 -0.14 1.44 -0.52 2 c-0.18 0.26 -0.38 0.52 -0.64 0.74 c-0.16 0.12 -0.32 0.26 -0.5 0.36 s-0.38 0.18 -0.56 0.26 c-0.6 0.26 -1.32 0.28 -1.94 0.12 c-0.32 -0.08 -0.62 -0.2 -0.9 -0.38 c-0.26 -0.16 -0.54 -0.36 -0.74 -0.6 c-0.22 -0.24 -0.42 -0.5 -0.56 -0.8 c-0.08 -0.18 -0.18 -0.38 -0.24 -0.58 c-0.04 -0.2 -0.1 -0.72 -0.1 -0.92 c0 -0.6 2.24 -0.6 2.24 0 c0 0.5 0.78 1.84 1.98 0.64 c0.5 -0.72 0.04 -1.54 -0.4 -2.14 c-0.68 -0.84 -1.56 -1.48 -2.28 -2.28 c-0.42 -0.46 -0.84 -0.98 -1.1 -1.56 c-0.14 -0.32 -0.26 -0.64 -0.34 -1 c-0.3 -1.66 0.22 -4.62 3.84 -4.28 c1.82 0.18 2.62 1.74 2.62 2.8 c0 0.6 -2.28 0.6 -2.28 0 c0 -0.8 -2.26 -0.9 -1.98 0.86 c0.04 0.18 0.08 0.36 0.16 0.54 c0.12 0.26 0.26 0.48 0.42 0.7 c0.2 0.26 0.4 0.48 0.64 0.7 c0.88 0.86 1.88 1.64 2.52 2.74 c0.38 0.64 0.6 1.34 0.66 2.08 z"></path></g><g id="SvgjsG1015" featureKey="text3" fill="#da223e" transform="matrix(0.8353559127640545,0,0,0.8353559127640545,117.74939286767491,213.56290655573503)"><path d="M5.8 15.58 l2.08 -5.24 q0.16 -0.04 0.33 -0.06 t0.35 -0.02 q0.34 0 0.74 0.1 l0.06 0.12 l-3.76 9.08 l0 4.44 q-0.34 0.06 -0.78 0.06 q-0.46 0 -0.76 -0.06 l0 -4.5 l-3.76 -8.98 q0.24 -0.14 0.48 -0.23 t0.46 -0.09 q0.28 0 0.51 0.17 t0.39 0.57 l1.92 4.64 q0.14 0.34 0.35 0.9 t0.47 1.4 l0.1 0 q0.04 -0.18 0.25 -0.75 t0.57 -1.55 z M12.540000000000001 15.14 q-0.1 0.48 -0.13 0.99 t-0.03 1.03 q0 0.9 0.14 1.91 t0.54 1.88 t1.14 1.44 t1.94 0.57 q0.8 0 1.4 -0.28 t1.02 -0.73 t0.67 -1.05 t0.4 -1.25 t0.21 -1.29 t0.06 -1.2 q0 -0.88 -0.14 -1.9 t-0.55 -1.88 t-1.14 -1.43 t-1.93 -0.57 q-0.9 0 -1.54 0.33 t-1.05 0.86 t-0.64 1.2 t-0.37 1.37 z M12.88 23.08 q-2.12 -1.88 -2.12 -5.9 q0 -1.58 0.35 -2.89 t1.03 -2.24 t1.69 -1.44 t2.31 -0.51 q1.38 0 2.4 0.57 t1.69 1.54 t0.99 2.25 t0.32 2.7 q0 1.58 -0.35 2.89 t-1.03 2.24 t-1.69 1.44 t-2.33 0.51 q-1.98 0 -3.26 -1.16 z M34.2 10.34 l0 9 q0 1.2 -0.35 2.11 t-0.98 1.53 t-1.53 0.94 t-2 0.32 t-2 -0.32 t-1.53 -0.94 t-0.97 -1.53 t-0.34 -2.11 l0 -8.94 l0.12 -0.12 l0.6 0 q0.48 0 0.64 0.23 t0.16 0.77 l0 8.04 q0 1.76 0.87 2.71 t2.45 0.95 t2.45 -0.93 t0.87 -2.73 l0 -8.98 q0.3 -0.06 0.76 -0.06 q0.44 0 0.78 0.06 z M38.1 10.34 l4.04 -0.06 q2.06 0 3.2 1.04 t1.14 2.92 q0 1.34 -0.7 2.31 t-1.92 1.33 q0.82 0.26 1.34 1.62 l1.04 2.7 q0.22 0.56 0.44 0.91 t0.42 0.51 q-0.32 0.5 -1.06 0.5 q-0.42 0 -0.65 -0.22 t-0.45 -0.78 l-1.16 -3.04 q-0.34 -0.9 -0.81 -1.37 t-1.39 -0.47 l-2.08 0 l0 5.76 q-0.36 0.06 -0.78 0.06 q-0.44 0 -0.74 -0.06 l0 -13.54 z M39.5 11.54 l0 5.42 q0.42 -0.02 1.03 -0.03 t1.45 -0.01 t1.39 -0.22 t0.89 -0.58 t0.48 -0.85 t0.14 -1.03 q0 -0.56 -0.14 -1.05 t-0.48 -0.85 t-0.91 -0.57 t-1.43 -0.21 l-1.44 0 t-0.98 -0.02 z  M55.74 16.44 l1.1 -0.02 l4.1 0 q0.06 0.36 0.06 0.67 t-0.06 0.65 l-4.1 0 q-0.7 0 -1.1 -0.02 l0 6.28 q-0.3 0.06 -0.76 0.06 t-0.76 -0.06 l0 -13.54 l0.12 -0.12 l7.58 0 q0.1 0.3 0.1 0.64 q0 0.7 -0.94 0.7 l-3.18 0 q-1.58 0 -2.18 -0.04 l0.02 2.8 l0 2 z M64.62 10.34 l4.04 -0.06 q2.06 0 3.2 1.04 t1.14 2.92 q0 1.34 -0.7 2.31 t-1.92 1.33 q0.82 0.26 1.34 1.62 l1.04 2.7 q0.22 0.56 0.44 0.91 t0.42 0.51 q-0.32 0.5 -1.06 0.5 q-0.42 0 -0.65 -0.22 t-0.45 -0.78 l-1.16 -3.04 q-0.34 -0.9 -0.81 -1.37 t-1.39 -0.47 l-2.08 0 l0 5.76 q-0.36 0.06 -0.78 0.06 q-0.44 0 -0.74 -0.06 l0 -13.54 z M66.02000000000001 11.54 l0 5.42 q0.42 -0.02 1.03 -0.03 t1.45 -0.01 t1.39 -0.22 t0.89 -0.58 t0.48 -0.85 t0.14 -1.03 q0 -0.56 -0.14 -1.05 t-0.48 -0.85 t-0.91 -0.57 t-1.43 -0.21 l-1.44 0 t-0.98 -0.02 z M76.42 24 l0 -13.66 q0.28 -0.06 0.73 -0.06 t0.79 0.06 l0 13.66 q-0.34 0.06 -0.79 0.06 t-0.73 -0.06 z M83.46 21.94 l-0.02 0.76 q0.68 -0.04 1.24 -0.04 l5.48 0 q0 0.42 -0.04 0.64 q-0.14 0.7 -0.98 0.7 l-6.3 0 q-0.4 0 -0.63 -0.27 t-0.23 -0.73 l0 -12.54 l0.12 -0.12 l7.72 0 q0.04 0.24 0.04 0.63 t-0.1 0.69 l-6.32 0 l0.02 1.24 l0 3.54 l1.2 -0.02 l4.14 0 q0.06 0.36 0.06 0.67 t-0.06 0.65 l-4.14 0 q-0.76 0 -1.2 -0.02 l0 4.22 z M102.60000000000001 10.28 l0.12 0.1 l0 13.62 q-0.38 0.06 -0.94 0.06 t-0.96 -0.06 l-4.86 -9.06 q-0.6 -1.12 -1.36 -2.76 l-0.06 0 q0.12 3.72 0.12 4.32 l0 7.5 q-0.42 0.06 -0.74 0.06 t-0.68 -0.06 l0 -13.66 q0.36 -0.06 0.91 -0.06 t0.95 0.06 l4.86 9.06 q0.48 0.86 1.4 2.82 l0.06 0 q-0.14 -2.56 -0.14 -4.56 l0 -6.38 q0 -0.54 0.16 -0.77 t0.64 -0.23 l0.52 0 z M114.2 23.06 q-0.28 0.24 -0.68 0.43 t-0.85 0.32 t-0.9 0.2 t-0.79 0.07 q-0.36 0 -1.4 -0.02 t-2.8 -0.06 l-0.12 -0.12 l0 -13.42 l0.12 -0.12 q1.74 -0.06 4.06 -0.06 q1.56 0 2.6 0.54 t1.67 1.47 t0.89 2.2 t0.26 2.71 q0 1 -0.09 1.85 t-0.33 1.57 t-0.64 1.33 t-1 1.11 z M108.18 22.78 l2.64 0.02 q1.14 0 1.88 -0.45 t1.17 -1.19 t0.6 -1.66 t0.17 -1.84 q0 -1.34 -0.14 -2.46 t-0.58 -1.93 t-1.22 -1.26 t-1.88 -0.45 l-2.64 -0.02 l0 11.24 z M122.68 22.64 l4.26 0 q0 0.44 -0.06 0.66 q-0.12 0.7 -0.98 0.7 l-5.6 0 q-0.38 0 -0.63 -0.27 t-0.25 -0.75 l0 -12.58 l0.12 -0.12 l0.6 0 q0.48 0 0.64 0.23 t0.16 0.77 l0 11.42 q0.9 -0.06 1.74 -0.06 z M133.36 15.58 l2.08 -5.24 q0.16 -0.04 0.33 -0.06 t0.35 -0.02 q0.34 0 0.74 0.1 l0.06 0.12 l-3.76 9.08 l0 4.44 q-0.34 0.06 -0.78 0.06 q-0.46 0 -0.76 -0.06 l0 -4.5 l-3.76 -8.98 q0.24 -0.14 0.48 -0.23 t0.46 -0.09 q0.28 0 0.51 0.17 t0.39 0.57 l1.92 4.64 q0.14 0.34 0.35 0.9 t0.47 1.4 l0.1 0 q0.04 -0.18 0.25 -0.75 t0.57 -1.55 z  M152.92000000000002 10.28 l0.12 0.1 l0 13.62 q-0.38 0.06 -0.94 0.06 t-0.96 -0.06 l-4.86 -9.06 q-0.6 -1.12 -1.36 -2.76 l-0.06 0 q0.12 3.72 0.12 4.32 l0 7.5 q-0.42 0.06 -0.74 0.06 t-0.68 -0.06 l0 -13.66 q0.36 -0.06 0.91 -0.06 t0.95 0.06 l4.86 9.06 q0.48 0.86 1.4 2.82 l0.06 0 q-0.14 -2.56 -0.14 -4.56 l0 -6.38 q0 -0.54 0.16 -0.77 t0.64 -0.23 l0.52 0 z M158.46 21.94 l-0.02 0.76 q0.68 -0.04 1.24 -0.04 l5.48 0 q0 0.42 -0.04 0.64 q-0.14 0.7 -0.98 0.7 l-6.3 0 q-0.4 0 -0.63 -0.27 t-0.23 -0.73 l0 -12.54 l0.12 -0.12 l7.72 0 q0.04 0.24 0.04 0.63 t-0.1 0.69 l-6.32 0 l0.02 1.24 l0 3.54 l1.2 -0.02 l4.14 0 q0.06 0.36 0.06 0.67 t-0.06 0.65 l-4.14 0 q-0.76 0 -1.2 -0.02 l0 4.22 z M168.32 24 l0 -13.66 q0.28 -0.06 0.73 -0.06 t0.79 0.06 l0 13.66 q-0.34 0.06 -0.79 0.06 t-0.73 -0.06 z M178.99999999999997 17.12 l3.04 0 q0.64 0 0.92 0.25 t0.28 0.81 l0 5.18 q-2.14 0.88 -4.76 0.88 q-1.48 0 -2.58 -0.59 t-1.7 -1.61 q-1.16 -2 -1.16 -4.78 q0 -1.88 0.49 -3.3 t1.31 -2.24 q1.62 -1.62 3.88 -1.62 q1.22 0 2.44 0.4 t2.06 1.1 q-0.16 0.74 -0.82 1.18 q-1.62 -1.3 -3.78 -1.3 q-1.72 0 -2.84 1.38 t-1.12 4.42 q0 5.62 4.1 5.62 q1.6 0 2.98 -0.46 l0 -2.72 q0 -0.88 0.02 -1.22 l-2.18 0 q-0.7 0 -0.7 -0.72 q0 -0.26 0.12 -0.66 z M194.51999999999998 16.28 l-0.02 -1.48 l0 -4.46 q0.26 -0.06 0.72 -0.06 t0.8 0.06 l0 13.66 q-0.34 0.06 -0.78 0.06 t-0.74 -0.06 l0 -4.92 l0.02 -1.48 l-1.22 0.02 l-3.96 0 l-1.22 -0.02 l0.02 1.48 l0 4.92 q-0.3 0.06 -0.76 0.06 t-0.76 -0.06 l0 -13.66 q0.3 -0.06 0.76 -0.06 t0.76 0.06 l0 4.46 l-0.02 1.48 l1.22 -0.02 l3.96 0 z M200.1 24 l-0.12 -0.12 l0 -13.42 l0.12 -0.12 l3.9 -0.06 q2.18 0 3.19 0.95 t1.01 2.65 q0 0.98 -0.52 1.75 t-1.44 1.09 q0.54 0.16 1.02 0.48 t0.84 0.79 t0.56 1.08 t0.2 1.33 q0 0.7 -0.27 1.36 t-0.83 1.17 t-1.44 0.82 t-2.1 0.31 z M201.5 22.8 l2.84 -0.02 q0.84 0 1.4 -0.23 t0.89 -0.59 t0.47 -0.84 t0.14 -1 q0 -0.44 -0.16 -0.91 t-0.52 -0.86 t-0.95 -0.64 t-1.45 -0.25 l-2.66 0 l0 5.34 z M201.5 11.54 l0 4.64 l2.46 0 q0.74 0 1.25 -0.18 t0.82 -0.5 t0.44 -0.74 t0.13 -0.9 q0 -2.3 -2.58 -2.3 l-1.52 0 t-1 -0.02 z M212.92 15.14 q-0.1 0.48 -0.13 0.99 t-0.03 1.03 q0 0.9 0.14 1.91 t0.54 1.88 t1.14 1.44 t1.94 0.57 q0.8 0 1.4 -0.28 t1.02 -0.73 t0.67 -1.05 t0.4 -1.25 t0.21 -1.29 t0.06 -1.2 q0 -0.88 -0.14 -1.9 t-0.55 -1.88 t-1.14 -1.43 t-1.93 -0.57 q-0.9 0 -1.54 0.33 t-1.05 0.86 t-0.64 1.2 t-0.37 1.37 z M213.26 23.08 q-2.12 -1.88 -2.12 -5.9 q0 -1.58 0.35 -2.89 t1.03 -2.24 t1.69 -1.44 t2.31 -0.51 q1.38 0 2.4 0.57 t1.69 1.54 t0.99 2.25 t0.32 2.7 q0 1.58 -0.35 2.89 t-1.03 2.24 t-1.69 1.44 t-2.33 0.51 q-1.98 0 -3.26 -1.16 z M225.16 10.34 l4.04 -0.06 q2.06 0 3.2 1.04 t1.14 2.92 q0 1.34 -0.7 2.31 t-1.92 1.33 q0.82 0.26 1.34 1.62 l1.04 2.7 q0.22 0.56 0.44 0.91 t0.42 0.51 q-0.32 0.5 -1.06 0.5 q-0.42 0 -0.65 -0.22 t-0.45 -0.78 l-1.16 -3.04 q-0.34 -0.9 -0.81 -1.37 t-1.39 -0.47 l-2.08 0 l0 5.76 q-0.36 0.06 -0.78 0.06 q-0.44 0 -0.74 -0.06 l0 -13.54 z M226.56 11.54 l0 5.42 q0.42 -0.02 1.03 -0.03 t1.45 -0.01 t1.39 -0.22 t0.89 -0.58 t0.48 -0.85 t0.14 -1.03 q0 -0.56 -0.14 -1.05 t-0.48 -0.85 t-0.91 -0.57 t-1.43 -0.21 l-1.44 0 t-0.98 -0.02 z M244.78 16.28 l-0.02 -1.48 l0 -4.46 q0.26 -0.06 0.72 -0.06 t0.8 0.06 l0 13.66 q-0.34 0.06 -0.78 0.06 t-0.74 -0.06 l0 -4.92 l0.02 -1.48 l-1.22 0.02 l-3.96 0 l-1.22 -0.02 l0.02 1.48 l0 4.92 q-0.3 0.06 -0.76 0.06 t-0.76 -0.06 l0 -13.66 q0.3 -0.06 0.76 -0.06 t0.76 0.06 l0 4.46 l-0.02 1.48 l1.22 -0.02 l3.96 0 z M251.17999999999998 15.14 q-0.1 0.48 -0.13 0.99 t-0.03 1.03 q0 0.9 0.14 1.91 t0.54 1.88 t1.14 1.44 t1.94 0.57 q0.8 0 1.4 -0.28 t1.02 -0.73 t0.67 -1.05 t0.4 -1.25 t0.21 -1.29 t0.06 -1.2 q0 -0.88 -0.14 -1.9 t-0.55 -1.88 t-1.14 -1.43 t-1.93 -0.57 q-0.9 0 -1.54 0.33 t-1.05 0.86 t-0.64 1.2 t-0.37 1.37 z M251.51999999999998 23.08 q-2.12 -1.88 -2.12 -5.9 q0 -1.58 0.35 -2.89 t1.03 -2.24 t1.69 -1.44 t2.31 -0.51 q1.38 0 2.4 0.57 t1.69 1.54 t0.99 2.25 t0.32 2.7 q0 1.58 -0.35 2.89 t-1.03 2.24 t-1.69 1.44 t-2.33 0.51 q-1.98 0 -3.26 -1.16 z M264.24 15.14 q-0.1 0.48 -0.13 0.99 t-0.03 1.03 q0 0.9 0.14 1.91 t0.54 1.88 t1.14 1.44 t1.94 0.57 q0.8 0 1.4 -0.28 t1.02 -0.73 t0.67 -1.05 t0.4 -1.25 t0.21 -1.29 t0.06 -1.2 q0 -0.88 -0.14 -1.9 t-0.55 -1.88 t-1.14 -1.43 t-1.93 -0.57 q-0.9 0 -1.54 0.33 t-1.05 0.86 t-0.64 1.2 t-0.37 1.37 z M264.58 23.08 q-2.12 -1.88 -2.12 -5.9 q0 -1.58 0.35 -2.89 t1.03 -2.24 t1.69 -1.44 t2.31 -0.51 q1.38 0 2.4 0.57 t1.69 1.54 t0.99 2.25 t0.32 2.7 q0 1.58 -0.35 2.89 t-1.03 2.24 t-1.69 1.44 t-2.33 0.51 q-1.98 0 -3.26 -1.16 z M283.9 23.06 q-0.28 0.24 -0.68 0.43 t-0.85 0.32 t-0.9 0.2 t-0.79 0.07 q-0.36 0 -1.4 -0.02 t-2.8 -0.06 l-0.12 -0.12 l0 -13.42 l0.12 -0.12 q1.74 -0.06 4.06 -0.06 q1.56 0 2.6 0.54 t1.67 1.47 t0.89 2.2 t0.26 2.71 q0 1 -0.09 1.85 t-0.33 1.57 t-0.64 1.33 t-1 1.11 z M277.88 22.78 l2.64 0.02 q1.14 0 1.88 -0.45 t1.17 -1.19 t0.6 -1.66 t0.17 -1.84 q0 -1.34 -0.14 -2.46 t-0.58 -1.93 t-1.22 -1.26 t-1.88 -0.45 l-2.64 -0.02 l0 11.24 z  M301.05999999999995 23.06 q-0.28 0.24 -0.68 0.43 t-0.85 0.32 t-0.9 0.2 t-0.79 0.07 q-0.36 0 -1.4 -0.02 t-2.8 -0.06 l-0.12 -0.12 l0 -13.42 l0.12 -0.12 q1.74 -0.06 4.06 -0.06 q1.56 0 2.6 0.54 t1.67 1.47 t0.89 2.2 t0.26 2.71 q0 1 -0.09 1.85 t-0.33 1.57 t-0.64 1.33 t-1 1.11 z M295.03999999999996 22.78 l2.64 0.02 q1.14 0 1.88 -0.45 t1.17 -1.19 t0.6 -1.66 t0.17 -1.84 q0 -1.34 -0.14 -2.46 t-0.58 -1.93 t-1.22 -1.26 t-1.88 -0.45 l-2.64 -0.02 l0 11.24 z M307.21999999999997 15.14 q-0.1 0.48 -0.13 0.99 t-0.03 1.03 q0 0.9 0.14 1.91 t0.54 1.88 t1.14 1.44 t1.94 0.57 q0.8 0 1.4 -0.28 t1.02 -0.73 t0.67 -1.05 t0.4 -1.25 t0.21 -1.29 t0.06 -1.2 q0 -0.88 -0.14 -1.9 t-0.55 -1.88 t-1.14 -1.43 t-1.93 -0.57 q-0.9 0 -1.54 0.33 t-1.05 0.86 t-0.64 1.2 t-0.37 1.37 z M307.55999999999995 23.08 q-2.12 -1.88 -2.12 -5.9 q0 -1.58 0.35 -2.89 t1.03 -2.24 t1.69 -1.44 t2.31 -0.51 q1.38 0 2.4 0.57 t1.69 1.54 t0.99 2.25 t0.32 2.7 q0 1.58 -0.35 2.89 t-1.03 2.24 t-1.69 1.44 t-2.33 0.51 q-1.98 0 -3.26 -1.16 z M324.46 17.12 l3.04 0 q0.64 0 0.92 0.25 t0.28 0.81 l0 5.18 q-2.14 0.88 -4.76 0.88 q-1.48 0 -2.58 -0.59 t-1.7 -1.61 q-1.16 -2 -1.16 -4.78 q0 -1.88 0.49 -3.3 t1.31 -2.24 q1.62 -1.62 3.88 -1.62 q1.22 0 2.44 0.4 t2.06 1.1 q-0.16 0.74 -0.82 1.18 q-1.62 -1.3 -3.78 -1.3 q-1.72 0 -2.84 1.38 t-1.12 4.42 q0 5.62 4.1 5.62 q1.6 0 2.98 -0.46 l0 -2.72 q0 -0.88 0.02 -1.22 l-2.18 0 q-0.7 0 -0.7 -0.72 q0 -0.26 0.12 -0.66 z  M337.85999999999996 23.24 l-2.58 -12.84 q0.38 -0.18 0.81 -0.18 t0.6 0.18 t0.27 0.64 l1.48 7.66 l0.68 3.84 q0.02 0.14 0.05 0.17 t0.13 0.03 l2.46 -12.1 q0.44 -0.06 1.06 -0.06 t0.96 0.06 l2.26 11.9 q0.04 0.2 0.16 0.2 q0.18 -1 0.78 -4.04 l1.76 -8.36 q0.3 -0.06 0.72 -0.06 t0.72 0.08 l0.08 0.1 l-2.98 13.52 q-0.5 0.1 -1.17 0.1 t-0.91 -0.17 t-0.32 -0.65 l-1.12 -5.92 q-0.64 -3.42 -0.94 -5.1 l-0.12 0 q-0.58 3.18 -1 5.1 l-1.4 6.66 q-0.54 0.08 -1.41 0.08 t-1.03 -0.84 z M359.53999999999996 20.44 l-1.4 0.02 l-2.68 0 l-1.4 -0.02 l-1.16 3.58 q-0.26 0.06 -0.64 0.06 t-0.78 -0.1 l-0.04 -0.06 l4.58 -13.58 q0.34 -0.06 0.9 -0.06 t0.82 0.06 l4.58 13.58 q-0.32 0.2 -0.8 0.2 t-0.68 -0.16 t-0.34 -0.64 z M354.49999999999994 19.14 l1.16 -0.02 l2.3 0 q0.02 0 0.49 0.01 t0.67 0.01 l-1.26 -3.8 q-0.76 -2.34 -1.02 -3.34 l-0.1 0 q-0.38 1.48 -0.68 2.38 z M368.08 22.64 l4.26 0 q0 0.44 -0.06 0.66 q-0.12 0.7 -0.98 0.7 l-5.6 0 q-0.38 0 -0.63 -0.27 t-0.25 -0.75 l0 -12.58 l0.12 -0.12 l0.6 0 q0.48 0 0.64 0.23 t0.16 0.77 l0 11.42 q0.9 -0.06 1.74 -0.06 z M384.18 23.58 q-0.34 0.52 -0.93 0.52 t-0.81 -0.23 t-0.42 -0.77 l-1.28 -3.26 q-0.48 -1.22 -1.07 -1.71 t-1.48 -0.49 t-1.73 0.04 l0 6.32 q-0.3 0.06 -0.76 0.06 t-0.76 -0.06 l0 -13.66 q0.3 -0.06 0.76 -0.06 t0.76 0.06 l0 5.98 l1.46 -0.04 q0.38 0 0.68 -0.48 l2.94 -4.76 q0.26 -0.42 0.46 -0.58 t0.52 -0.16 t0.92 0.04 l0.12 0.16 l-3.36 5.44 q-0.3 0.48 -0.62 0.74 q0.96 0.14 1.5 0.73 t1.06 1.83 l1.22 3.12 q0.34 0.84 0.82 1.22 z M388.08 21.94 l-0.02 0.76 q0.68 -0.04 1.24 -0.04 l5.48 0 q0 0.42 -0.04 0.64 q-0.14 0.7 -0.98 0.7 l-6.3 0 q-0.4 0 -0.63 -0.27 t-0.23 -0.73 l0 -12.54 l0.12 -0.12 l7.72 0 q0.04 0.24 0.04 0.63 t-0.1 0.69 l-6.32 0 l0.02 1.24 l0 3.54 l1.2 -0.02 l4.14 0 q0.06 0.36 0.06 0.67 t-0.06 0.65 l-4.14 0 q-0.76 0 -1.2 -0.02 l0 4.22 z M397.98 10.34 l4.04 -0.06 q2.06 0 3.2 1.04 t1.14 2.92 q0 1.34 -0.7 2.31 t-1.92 1.33 q0.82 0.26 1.34 1.62 l1.04 2.7 q0.22 0.56 0.44 0.91 t0.42 0.51 q-0.32 0.5 -1.06 0.5 q-0.42 0 -0.65 -0.22 t-0.45 -0.78 l-1.16 -3.04 q-0.34 -0.9 -0.81 -1.37 t-1.39 -0.47 l-2.08 0 l0 5.76 q-0.36 0.06 -0.78 0.06 q-0.44 0 -0.74 -0.06 l0 -13.54 z M399.38 11.54 l0 5.42 q0.42 -0.02 1.03 -0.03 t1.45 -0.01 t1.39 -0.22 t0.89 -0.58 t0.48 -0.85 t0.14 -1.03 q0 -0.56 -0.14 -1.05 t-0.48 -0.85 t-0.91 -0.57 t-1.43 -0.21 l-1.44 0 t-0.98 -0.02 z M408.49999999999994 22.74 q0.06 -0.74 0.7 -1.22 q2.04 1.38 4 1.38 q1.42 0 2.24 -0.6 t0.82 -1.64 q0 -1.54 -2.12 -2.48 l-2.34 -1.02 q-2.7 -1.16 -2.7 -3.36 q0 -0.76 0.32 -1.44 t0.89 -1.18 t1.37 -0.79 t1.78 -0.29 q1.94 0 3.96 0.96 q0 0.78 -0.62 1.28 q-0.98 -0.5 -1.81 -0.72 t-1.53 -0.22 q-0.64 0 -1.15 0.18 t-0.88 0.47 t-0.57 0.68 t-0.2 0.81 q0 0.88 0.51 1.37 t1.43 0.87 l2.26 0.98 q2.98 1.3 2.98 3.62 q0 1.74 -1.18 2.8 t-3.66 1.06 q-2.44 0 -4.5 -1.5 z M420.28 23.94 q-0.16 -0.28 -0.16 -0.88 q0 -0.42 0.09 -0.65 t0.26 -0.33 t0.39 -0.11 t0.48 -0.01 t0.47 0.01 t0.37 0.12 t0.25 0.33 t0.09 0.64 q0 0.38 -0.06 0.6 t-0.2 0.32 t-0.36 0.13 t-0.54 0.03 q-0.7 0 -1.08 -0.2 z"></path></g>
			</g>
		</svg>
	